<?xml version="1.0" encoding="utf-8"?>
<!-- Generator: Adobe Illustrator 28.0.0, SVG Export Plug-In . SVG Version: 6.00 Build 0)  -->
<svg version="1.1" xmlns="http://www.w3.org/2000/svg" xmlns:xlink="http://www.w3.org/1999/xlink" x="0px" y="0px"
	 viewBox="0 0 1920 1080" style="enable-background:new 0 0 1920 1080;" xml:space="preserve">
<style type="text/css">
	.st0{fill:#FFFFFF;}
	.st1{display:none;}
	.st2{display:inline;}
	.st3{fill:none;stroke:#000000;stroke-miterlimit:10;}
</style>
<g id="Capa_2">
	<g>
		<path class="st0" d="M1030.95,477.47l-118.24-62.58c-8.41-4.45-18.52,1.64-18.52,11.15v13.58h-30.07c-4.15,0-7.52,3.37-7.52,7.52
			v7.52c0,4.15,3.37,7.52,7.52,7.52h30.07h15.03c4.15,0,7.52,3.36,7.52,7.52v7.52c0,4.15,3.37,7.52,7.52,7.52h11.27
			c4.15,0,7.52,3.37,7.52,7.52v7.52c0,4.15-3.37,7.52-7.52,7.52h-41.34h-15.03c-4.15,0-7.52,3.36-7.52,7.52v7.52
			c0,4.15,3.37,7.52,7.52,7.52h15.03v21.38c0,9.51,10.12,15.6,18.52,11.15l118.24-62.58
			C1039.91,495.04,1039.91,482.21,1030.95,477.47z"/>
		<path class="st0" d="M1243.69,383.25h-15.03v-63.89H778.24l-75.72-54.36v54.36v217.97h-15.03c-4.15,0-7.52,3.36-7.52,7.52v22.55
			c0,4.15,3.37,7.52,7.52,7.52h15.03v7.52c0,41.44,33.72,75.16,75.16,75.16h375.81c41.45,0,75.16-33.72,75.16-75.16v-14.22h-11.27
			c-4.15,0-7.52-3.37-7.52-7.52v-22.55c0-4.15,3.37-7.52,7.52-7.52h11.27v-109.8h15.03c4.15,0,7.52-3.37,7.52-7.52v-22.55
			C1251.21,386.62,1247.84,383.25,1243.69,383.25z M1213.63,419.67c-1.61,0.73-3.38,1.16-5.27,1.16h-17.28v108.99h-30.07
			c-4.15,0-7.52,3.36-7.52,7.52v22.55c0,4.15,3.37,7.52,7.52,7.52h30.07v15.03c0,20.72-16.86,37.58-37.58,37.58H777.68
			c-20.72,0-37.58-16.86-37.58-37.58v-7.52h-18.79c-1.38,0-2.65-0.4-3.76-1.04v-35.5c1.11-0.65,2.38-1.04,3.76-1.04h18.79V356.95
			h450.98v26.31h21.57c0.34,0,0.66,0.06,0.98,0.1V419.67z"/>
		<polygon class="st0" points="911.4,254.04 859.56,192.49 784.91,218.44 834.93,280.63 		"/>
		<polygon class="st0" points="1085.13,192.49 1033.88,130.73 915.2,172 973.17,231.42 		"/>
		<polygon class="st0" points="1222.65,144.99 1197.97,74 1092.67,110.61 1142.41,172.89 		"/>
	</g>
	<g>
		<g>
			<path class="st0" d="M424.06,955.8c-10.11-5.44-17.81-13.36-23.12-23.76c-5.31-10.41-7.96-22.97-7.96-37.7v-51.25
				c0-14.73,2.65-27.3,7.96-37.7c5.31-10.41,13.02-18.35,23.12-23.83c10.1-5.48,22.26-8.22,36.48-8.22
				c11.73,0,22.22,2.53,31.47,7.58c9.25,5.05,16.89,12.4,22.93,22.03c6.04,9.63,10.21,21.26,12.52,34.87h-36.48
				c-1.37-6.17-3.49-11.43-6.36-15.8c-2.87-4.37-6.34-7.71-10.4-10.02c-4.07-2.31-8.63-3.47-13.68-3.47c-6.6,0-12.2,1.35-16.83,4.05
				c-4.62,2.7-8.16,6.64-10.6,11.82c-2.44,5.18-3.66,11.41-3.66,18.69v51.25c0,7.28,1.22,13.49,3.66,18.63
				c2.44,5.14,5.97,9.06,10.6,11.75c4.62,2.7,10.23,4.05,16.83,4.05c5.14,0,9.76-1.13,13.87-3.4c4.11-2.27,7.58-5.59,10.4-9.96
				c2.83-4.37,4.88-9.68,6.17-15.93h36.48c-2.4,13.62-6.62,25.24-12.65,34.88c-6.04,9.63-13.66,16.98-22.86,22.03
				c-9.21,5.05-19.68,7.58-31.41,7.58C446.33,963.96,434.17,961.24,424.06,955.8z"/>
			<path class="st0" d="M589.54,962.03h-36.48V775.26h36.48V962.03z"/>
			<path class="st0" d="M624.13,775.26h43.03l69.49,143.1l-3.08,3.34V775.26h33.65V961.9h-43.29l-69.24-140.91l3.08-3.34V961.9
				h-33.65V775.26z"/>
			<path class="st0" d="M804.39,775.26h35.2v186.77h-35.2V775.26z M817.11,775.26h112.4v33.91h-112.4V775.26z M817.11,852.33h98.27
				v33.91h-98.27V852.33z M817.11,928.12h112.4v33.91h-112.4V928.12z"/>
			<path class="st0" d="M957.67,775.26h35.2v186.77h-35.2V775.26z M973.08,928.12h59.6c8.05,0,14.28-1.95,18.69-5.84
				c4.41-3.9,6.62-9.36,6.62-16.38v-0.38c0-4.71-0.99-8.74-2.96-12.08c-1.97-3.34-4.86-5.89-8.67-7.64
				c-3.81-1.75-8.37-2.63-13.68-2.63h-59.6v-33.91h59.6c7.28,0,12.91-1.84,16.89-5.52c3.98-3.68,5.97-8.86,5.97-15.54
				c0-5.99-1.99-10.66-5.97-14s-9.61-5.01-16.89-5.01h-59.6v-33.91h60.76c12.07,0,22.39,1.99,30.96,5.97
				c8.56,3.98,15.07,9.76,19.52,17.34c4.45,7.58,6.68,16.68,6.68,27.3c0,7.28-1.43,13.72-4.3,19.33
				c-2.87,5.61-7.04,10.21-12.52,13.81c-5.48,3.6-12.07,6.04-19.78,7.32c8.22,1.11,15.26,3.62,21.13,7.51
				c5.87,3.9,10.32,8.97,13.36,15.22c3.04,6.25,4.56,13.49,4.56,21.71v0.39c0,10.71-2.25,19.87-6.74,27.49
				c-4.5,7.62-11.05,13.42-19.65,17.41c-8.61,3.98-18.95,5.97-31.02,5.97h-62.94V928.12z"/>
			<path class="st0" d="M1186.74,889.97v72.06h-35.2v-72.06l-54.98-114.71h36.87l35.71,80.41l35.71-80.41h36.87L1186.74,889.97z"/>
			<path class="st0" d="M1226.21,775.26h136.93v33.91h-136.93V775.26z M1277.07,790.55h35.2v171.48h-35.2V790.55z"/>
			<path class="st0" d="M1374.6,775.26h35.2v186.77h-35.2V775.26z M1387.32,775.26h112.4v33.91h-112.4V775.26z M1387.32,852.33
				h98.27v33.91h-98.27V852.33z M1387.32,928.12h112.4v33.91h-112.4V928.12z"/>
		</g>
	</g>
</g>
<g id="Capa_1" class="st1">
	<g class="st2">
		<g>
			<line x1="-139.23" y1="1110" x2="2069.38" y2="1110"/>
			<line class="st3" x1="-139.23" y1="1110" x2="2069.38" y2="1110"/>
		</g>
		<g>
			<line x1="-139.23" y1="1073" x2="2069.38" y2="1073"/>
			<line class="st3" x1="-139.23" y1="1073" x2="2069.38" y2="1073"/>
		</g>
		<g>
			<line x1="-139.23" y1="1036" x2="2069.38" y2="1036"/>
			<line class="st3" x1="-139.23" y1="1036" x2="2069.38" y2="1036"/>
		</g>
		<g>
			<line x1="-139.23" y1="999" x2="2069.38" y2="999"/>
			<line class="st3" x1="-139.23" y1="999" x2="2069.38" y2="999"/>
		</g>
		<g>
			<line x1="-139.23" y1="962" x2="2069.38" y2="962"/>
			<line class="st3" x1="-139.23" y1="962" x2="2069.38" y2="962"/>
		</g>
		<g>
			<line x1="-139.23" y1="925" x2="2069.38" y2="925"/>
			<line class="st3" x1="-139.23" y1="925" x2="2069.38" y2="925"/>
		</g>
		<g>
			<line x1="-139.23" y1="888" x2="2069.38" y2="888"/>
			<line class="st3" x1="-139.23" y1="888" x2="2069.38" y2="888"/>
		</g>
		<g>
			<line x1="-139.23" y1="851" x2="2069.38" y2="851"/>
			<line class="st3" x1="-139.23" y1="851" x2="2069.38" y2="851"/>
		</g>
		<g>
			<line x1="-139.23" y1="814" x2="2069.38" y2="814"/>
			<line class="st3" x1="-139.23" y1="814" x2="2069.38" y2="814"/>
		</g>
		<g>
			<line x1="-139.23" y1="777" x2="2069.38" y2="777"/>
			<line class="st3" x1="-139.23" y1="777" x2="2069.38" y2="777"/>
		</g>
		<g>
			<line x1="-139.23" y1="740" x2="2069.38" y2="740"/>
			<line class="st3" x1="-139.23" y1="740" x2="2069.38" y2="740"/>
		</g>
		<g>
			<line x1="-139.23" y1="703" x2="2069.38" y2="703"/>
			<line class="st3" x1="-139.23" y1="703" x2="2069.38" y2="703"/>
		</g>
		<g>
			<line x1="-139.23" y1="666" x2="2069.38" y2="666"/>
			<line class="st3" x1="-139.23" y1="666" x2="2069.38" y2="666"/>
		</g>
		<g>
			<line x1="-139.23" y1="629" x2="2069.38" y2="629"/>
			<line class="st3" x1="-139.23" y1="629" x2="2069.38" y2="629"/>
		</g>
		<g>
			<line x1="-139.23" y1="592" x2="2069.38" y2="592"/>
			<line class="st3" x1="-139.23" y1="592" x2="2069.38" y2="592"/>
		</g>
		<g>
			<line x1="-139.23" y1="555" x2="2069.38" y2="555"/>
			<line class="st3" x1="-139.23" y1="555" x2="2069.38" y2="555"/>
		</g>
		<g>
			<line x1="-139.23" y1="518" x2="2069.38" y2="518"/>
			<line class="st3" x1="-139.23" y1="518" x2="2069.38" y2="518"/>
		</g>
		<g>
			<line x1="-139.23" y1="481" x2="2069.38" y2="481"/>
			<line class="st3" x1="-139.23" y1="481" x2="2069.38" y2="481"/>
		</g>
		<g>
			<line x1="-139.23" y1="444" x2="2069.38" y2="444"/>
			<line class="st3" x1="-139.23" y1="444" x2="2069.38" y2="444"/>
		</g>
		<g>
			<line x1="-139.23" y1="407" x2="2069.38" y2="407"/>
			<line class="st3" x1="-139.23" y1="407" x2="2069.38" y2="407"/>
		</g>
		<g>
			<line x1="-139.23" y1="370" x2="2069.38" y2="370"/>
			<line class="st3" x1="-139.23" y1="370" x2="2069.38" y2="370"/>
		</g>
		<g>
			<line x1="-139.23" y1="333" x2="2069.38" y2="333"/>
			<line class="st3" x1="-139.23" y1="333" x2="2069.38" y2="333"/>
		</g>
		<g>
			<line x1="-139.23" y1="296" x2="2069.38" y2="296"/>
			<line class="st3" x1="-139.23" y1="296" x2="2069.38" y2="296"/>
		</g>
		<g>
			<line x1="-139.23" y1="259" x2="2069.38" y2="259"/>
			<line class="st3" x1="-139.23" y1="259" x2="2069.38" y2="259"/>
		</g>
		<g>
			<line x1="-139.23" y1="222" x2="2069.38" y2="222"/>
			<line class="st3" x1="-139.23" y1="222" x2="2069.38" y2="222"/>
		</g>
		<g>
			<line x1="-139.23" y1="185" x2="2069.38" y2="185"/>
			<line class="st3" x1="-139.23" y1="185" x2="2069.38" y2="185"/>
		</g>
		<g>
			<line x1="-139.23" y1="148" x2="2069.38" y2="148"/>
			<line class="st3" x1="-139.23" y1="148" x2="2069.38" y2="148"/>
		</g>
		<g>
			<line x1="-139.23" y1="111" x2="2069.38" y2="111"/>
			<line class="st3" x1="-139.23" y1="111" x2="2069.38" y2="111"/>
		</g>
		<g>
			<line x1="-139.23" y1="74" x2="2069.38" y2="74"/>
			<line class="st3" x1="-139.23" y1="74" x2="2069.38" y2="74"/>
		</g>
		<g>
			<line x1="-139.23" y1="37" x2="2069.38" y2="37"/>
			<line class="st3" x1="-139.23" y1="37" x2="2069.38" y2="37"/>
		</g>
		<g>
			<line x1="-139.23" y1="0" x2="2069.38" y2="0"/>
			<line class="st3" x1="-139.23" y1="0" x2="2069.38" y2="0"/>
		</g>
	</g>
	<g class="st2">
		<g>
			<line x1="1924" y1="-82.29" x2="1924" y2="1187.5"/>
			<line class="st3" x1="1924" y1="-82.29" x2="1924" y2="1187.5"/>
		</g>
		<g>
			<line x1="1887" y1="-82.29" x2="1887" y2="1187.5"/>
			<line class="st3" x1="1887" y1="-82.29" x2="1887" y2="1187.5"/>
		</g>
		<g>
			<line x1="1850" y1="-82.29" x2="1850" y2="1187.5"/>
			<line class="st3" x1="1850" y1="-82.29" x2="1850" y2="1187.5"/>
		</g>
		<g>
			<line x1="1813" y1="-82.29" x2="1813" y2="1187.5"/>
			<line class="st3" x1="1813" y1="-82.29" x2="1813" y2="1187.5"/>
		</g>
		<g>
			<line x1="1776" y1="-82.29" x2="1776" y2="1187.5"/>
			<line class="st3" x1="1776" y1="-82.29" x2="1776" y2="1187.5"/>
		</g>
		<g>
			<line x1="1739" y1="-82.29" x2="1739" y2="1187.5"/>
			<line class="st3" x1="1739" y1="-82.29" x2="1739" y2="1187.5"/>
		</g>
		<g>
			<line x1="1702" y1="-82.29" x2="1702" y2="1187.5"/>
			<line class="st3" x1="1702" y1="-82.29" x2="1702" y2="1187.5"/>
		</g>
		<g>
			<line x1="1665" y1="-82.29" x2="1665" y2="1187.5"/>
			<line class="st3" x1="1665" y1="-82.29" x2="1665" y2="1187.5"/>
		</g>
		<g>
			<line x1="1628" y1="-82.29" x2="1628" y2="1187.5"/>
			<line class="st3" x1="1628" y1="-82.29" x2="1628" y2="1187.5"/>
		</g>
		<g>
			<line x1="1591" y1="-82.29" x2="1591" y2="1187.5"/>
			<line class="st3" x1="1591" y1="-82.29" x2="1591" y2="1187.5"/>
		</g>
		<g>
			<line x1="1554" y1="-82.29" x2="1554" y2="1187.5"/>
			<line class="st3" x1="1554" y1="-82.29" x2="1554" y2="1187.5"/>
		</g>
		<g>
			<line x1="1517" y1="-82.29" x2="1517" y2="1187.5"/>
			<line class="st3" x1="1517" y1="-82.29" x2="1517" y2="1187.5"/>
		</g>
		<g>
			<line x1="1480" y1="-82.29" x2="1480" y2="1187.5"/>
			<line class="st3" x1="1480" y1="-82.29" x2="1480" y2="1187.5"/>
		</g>
		<g>
			<line x1="1443" y1="-82.29" x2="1443" y2="1187.5"/>
			<line class="st3" x1="1443" y1="-82.29" x2="1443" y2="1187.5"/>
		</g>
		<g>
			<line x1="1406" y1="-82.29" x2="1406" y2="1187.5"/>
			<line class="st3" x1="1406" y1="-82.29" x2="1406" y2="1187.5"/>
		</g>
		<g>
			<line x1="1369" y1="-82.29" x2="1369" y2="1187.5"/>
			<line class="st3" x1="1369" y1="-82.29" x2="1369" y2="1187.5"/>
		</g>
		<g>
			<line x1="1332" y1="-82.29" x2="1332" y2="1187.5"/>
			<line class="st3" x1="1332" y1="-82.29" x2="1332" y2="1187.5"/>
		</g>
		<g>
			<line x1="1295" y1="-82.29" x2="1295" y2="1187.5"/>
			<line class="st3" x1="1295" y1="-82.29" x2="1295" y2="1187.5"/>
		</g>
		<g>
			<line x1="1258" y1="-82.29" x2="1258" y2="1187.5"/>
			<line class="st3" x1="1258" y1="-82.29" x2="1258" y2="1187.5"/>
		</g>
		<g>
			<line x1="1221" y1="-82.29" x2="1221" y2="1187.5"/>
			<line class="st3" x1="1221" y1="-82.29" x2="1221" y2="1187.5"/>
		</g>
		<g>
			<line x1="1184" y1="-82.29" x2="1184" y2="1187.5"/>
			<line class="st3" x1="1184" y1="-82.29" x2="1184" y2="1187.5"/>
		</g>
		<g>
			<line x1="1147" y1="-82.29" x2="1147" y2="1187.5"/>
			<line class="st3" x1="1147" y1="-82.29" x2="1147" y2="1187.5"/>
		</g>
		<g>
			<line x1="1110" y1="-82.29" x2="1110" y2="1187.5"/>
			<line class="st3" x1="1110" y1="-82.29" x2="1110" y2="1187.5"/>
		</g>
		<g>
			<line x1="1073" y1="-82.29" x2="1073" y2="1187.5"/>
			<line class="st3" x1="1073" y1="-82.29" x2="1073" y2="1187.5"/>
		</g>
		<g>
			<line x1="1036" y1="-82.29" x2="1036" y2="1187.5"/>
			<line class="st3" x1="1036" y1="-82.29" x2="1036" y2="1187.5"/>
		</g>
		<g>
			<line x1="999" y1="-82.29" x2="999" y2="1187.5"/>
			<line class="st3" x1="999" y1="-82.29" x2="999" y2="1187.5"/>
		</g>
		<g>
			<line x1="962" y1="-82.29" x2="962" y2="1187.5"/>
			<line class="st3" x1="962" y1="-82.29" x2="962" y2="1187.5"/>
		</g>
		<g>
			<line x1="925" y1="-82.29" x2="925" y2="1187.5"/>
			<line class="st3" x1="925" y1="-82.29" x2="925" y2="1187.5"/>
		</g>
		<g>
			<line x1="888" y1="-82.29" x2="888" y2="1187.5"/>
			<line class="st3" x1="888" y1="-82.29" x2="888" y2="1187.5"/>
		</g>
		<g>
			<line x1="851" y1="-82.29" x2="851" y2="1187.5"/>
			<line class="st3" x1="851" y1="-82.29" x2="851" y2="1187.5"/>
		</g>
		<g>
			<line x1="814" y1="-82.29" x2="814" y2="1187.5"/>
			<line class="st3" x1="814" y1="-82.29" x2="814" y2="1187.5"/>
		</g>
		<g>
			<line x1="777" y1="-82.29" x2="777" y2="1187.5"/>
			<line class="st3" x1="777" y1="-82.29" x2="777" y2="1187.5"/>
		</g>
		<g>
			<line x1="740" y1="-82.29" x2="740" y2="1187.5"/>
			<line class="st3" x1="740" y1="-82.29" x2="740" y2="1187.5"/>
		</g>
		<g>
			<line x1="703" y1="-82.29" x2="703" y2="1187.5"/>
			<line class="st3" x1="703" y1="-82.29" x2="703" y2="1187.5"/>
		</g>
		<g>
			<line x1="666" y1="-82.29" x2="666" y2="1187.5"/>
			<line class="st3" x1="666" y1="-82.29" x2="666" y2="1187.5"/>
		</g>
		<g>
			<line x1="629" y1="-82.29" x2="629" y2="1187.5"/>
			<line class="st3" x1="629" y1="-82.29" x2="629" y2="1187.5"/>
		</g>
		<g>
			<line x1="592" y1="-82.29" x2="592" y2="1187.5"/>
			<line class="st3" x1="592" y1="-82.29" x2="592" y2="1187.5"/>
		</g>
		<g>
			<line x1="555" y1="-82.29" x2="555" y2="1187.5"/>
			<line class="st3" x1="555" y1="-82.29" x2="555" y2="1187.5"/>
		</g>
		<g>
			<line x1="518" y1="-82.29" x2="518" y2="1187.5"/>
			<line class="st3" x1="518" y1="-82.29" x2="518" y2="1187.5"/>
		</g>
		<g>
			<line x1="481" y1="-82.29" x2="481" y2="1187.5"/>
			<line class="st3" x1="481" y1="-82.29" x2="481" y2="1187.5"/>
		</g>
		<g>
			<line x1="444" y1="-82.29" x2="444" y2="1187.5"/>
			<line class="st3" x1="444" y1="-82.29" x2="444" y2="1187.5"/>
		</g>
		<g>
			<line x1="407" y1="-82.29" x2="407" y2="1187.5"/>
			<line class="st3" x1="407" y1="-82.29" x2="407" y2="1187.5"/>
		</g>
		<g>
			<line x1="370" y1="-82.29" x2="370" y2="1187.5"/>
			<line class="st3" x1="370" y1="-82.29" x2="370" y2="1187.5"/>
		</g>
		<g>
			<line x1="333" y1="-82.29" x2="333" y2="1187.5"/>
			<line class="st3" x1="333" y1="-82.29" x2="333" y2="1187.5"/>
		</g>
		<g>
			<line x1="296" y1="-82.29" x2="296" y2="1187.5"/>
			<line class="st3" x1="296" y1="-82.29" x2="296" y2="1187.5"/>
		</g>
		<g>
			<line x1="259" y1="-82.29" x2="259" y2="1187.5"/>
			<line class="st3" x1="259" y1="-82.29" x2="259" y2="1187.5"/>
		</g>
		<g>
			<line x1="222" y1="-82.29" x2="222" y2="1187.5"/>
			<line class="st3" x1="222" y1="-82.29" x2="222" y2="1187.5"/>
		</g>
		<g>
			<line x1="185" y1="-82.29" x2="185" y2="1187.5"/>
			<line class="st3" x1="185" y1="-82.29" x2="185" y2="1187.5"/>
		</g>
		<g>
			<line x1="148" y1="-82.29" x2="148" y2="1187.5"/>
			<line class="st3" x1="148" y1="-82.29" x2="148" y2="1187.5"/>
		</g>
		<g>
			<line x1="111" y1="-82.29" x2="111" y2="1187.5"/>
			<line class="st3" x1="111" y1="-82.29" x2="111" y2="1187.5"/>
		</g>
		<g>
			<line x1="74" y1="-82.29" x2="74" y2="1187.5"/>
			<line class="st3" x1="74" y1="-82.29" x2="74" y2="1187.5"/>
		</g>
		<g>
			<line x1="37" y1="-82.29" x2="37" y2="1187.5"/>
			<line class="st3" x1="37" y1="-82.29" x2="37" y2="1187.5"/>
		</g>
		<g>
			<line x1="0" y1="-82.29" x2="0" y2="1187.5"/>
			<line class="st3" x1="0" y1="-82.29" x2="0" y2="1187.5"/>
		</g>
	</g>
</g>
</svg>
