<?xml version="1.0" encoding="utf-8"?>
<!-- Generator: Adobe Illustrator 28.0.0, SVG Export Plug-In . SVG Version: 6.00 Build 0)  -->
<svg version="1.1" id="Capa_1" xmlns="http://www.w3.org/2000/svg" xmlns:xlink="http://www.w3.org/1999/xlink" x="0px" y="0px"
	 viewBox="0 0 1920 1080" style="enable-background:new 0 0 1920 1080;" xml:space="preserve">
<style type="text/css">
	.st0{display:none;}
	.st1{display:inline;}
	.st2{fill:none;}
	.st3{fill:none;stroke:#000000;stroke-miterlimit:10;}
</style>
<g>
	<path d="M443.1,605.3l-119-67.9c-8.5-4.8-18.6,1.8-18.6,12.1v14.7h-30.3c-4.2,0-7.6,3.6-7.6,8.1v8.1c0,4.5,3.4,8.1,7.6,8.1h30.3
		h15.1c4.2,0,7.6,3.6,7.6,8.1v8.1c0,4.5,3.4,8.1,7.6,8.1h11.3c4.2,0,7.6,3.6,7.6,8.1v8.1c0,4.5-3.4,8.1-7.6,8.1h-41.6h-15.1
		c-4.2,0-7.6,3.6-7.6,8.1v8.1c0,4.5,3.4,8.1,7.6,8.1h15.1v23.2c0,10.3,10.2,16.9,18.6,12.1l119-67.9
		C452.1,624.3,452.1,610.4,443.1,605.3z"/>
	<path d="M657.2,503.1h-15.1v-69.3H188.8l-76.2-58.9v58.9v236.4H97.5c-4.2,0-7.6,3.6-7.6,8.1v24.5c0,4.5,3.4,8.1,7.6,8.1h15.1v8.1
		c0,44.9,33.9,81.5,75.6,81.5h378.2c41.7,0,75.6-36.6,75.6-81.5v-15.4h-11.3c-4.2,0-7.6-3.6-7.6-8.1v-24.5c0-4.5,3.4-8.1,7.6-8.1
		h11.3V543.9h15.1c4.2,0,7.6-3.6,7.6-8.1v-24.5C664.8,506.7,661.4,503.1,657.2,503.1z M627,542.6c-1.6,0.8-3.4,1.3-5.3,1.3h-17.4
		V662H574c-4.2,0-7.6,3.6-7.6,8.1v24.5c0,4.5,3.4,8.1,7.6,8.1h30.3v16.3c0,22.5-17,40.8-37.8,40.8H188.3
		c-20.8,0-37.8-18.3-37.8-40.8v-8.1h-18.9c-1.4,0-2.7-0.4-3.8-1.1v-38.5c1.1-0.7,2.4-1.1,3.8-1.1h18.9V474.6h453.8v28.5H626
		c0.3,0,0.7,0.1,1,0.1V542.6z"/>
	<polygon points="322.8,363 270.7,296.2 195.5,324.4 245.9,391.8 	"/>
	<polygon points="497.7,296.2 446.1,229.3 326.7,274 385,338.4 	"/>
	<polygon points="636,244.7 611.2,167.7 505.2,207.4 555.3,275 	"/>
</g>
<g>
	<g>
		<path d="M793.7,666.4c-9-4.9-16-12-20.7-21.3c-4.8-9.3-7.1-20.6-7.1-33.8v-45.9c0-13.2,2.4-24.5,7.1-33.8
			c4.8-9.3,11.7-16.4,20.7-21.4c9-4.9,19.9-7.4,32.7-7.4c10.5,0,19.9,2.3,28.2,6.8c8.3,4.5,15.1,11.1,20.5,19.7s9.2,19,11.2,31.2
			h-32.7c-1.2-5.5-3.1-10.2-5.7-14.2c-2.6-3.9-5.7-6.9-9.3-9c-3.6-2.1-7.7-3.1-12.2-3.1c-5.9,0-10.9,1.2-15.1,3.6
			c-4.1,2.4-7.3,6-9.5,10.6c-2.2,4.6-3.3,10.2-3.3,16.7v45.9c0,6.5,1.1,12.1,3.3,16.7s5.3,8.1,9.5,10.5c4.1,2.4,9.2,3.6,15.1,3.6
			c4.6,0,8.8-1,12.4-3c3.7-2,6.8-5,9.3-8.9s4.4-8.7,5.5-14.3h32.7c-2.2,12.2-5.9,22.6-11.3,31.2s-12.2,15.2-20.5,19.7
			c-8.2,4.5-17.6,6.8-28.1,6.8C813.6,673.7,802.7,671.2,793.7,666.4z"/>
		<path d="M941.9,672h-32.7V504.6h32.7V672z"/>
		<path d="M972.9,504.6h38.5l62.2,128.2l-2.8,3V504.6h30.1v167.2h-38.8l-62-126.2l2.8-3v129.2h-30.2L972.9,504.6L972.9,504.6z"/>
		<path d="M1134.4,504.6h31.5V672h-31.5V504.6z M1145.7,504.6h100.7V535h-100.7V504.6z M1145.7,573.7h88v30.4h-88V573.7z
			 M1145.7,641.6h100.7V672h-100.7V641.6z"/>
		<path d="M1271.7,504.6h31.5V672h-31.5V504.6z M1285.5,641.6h53.4c7.2,0,12.8-1.7,16.7-5.2c3.9-3.5,5.9-8.4,5.9-14.7v-0.3
			c0-4.2-0.9-7.8-2.7-10.8c-1.8-3-4.3-5.3-7.8-6.8c-3.4-1.6-7.5-2.4-12.2-2.4h-53.4v-30.4h53.4c6.5,0,11.6-1.7,15.1-5
			s5.3-7.9,5.3-13.9c0-5.4-1.8-9.5-5.3-12.5s-8.6-4.5-15.1-4.5h-53.4v-30.4h54.4c10.8,0,20.1,1.8,27.7,5.4
			c7.7,3.6,13.5,8.7,17.5,15.5c4,6.8,6,14.9,6,24.5c0,6.5-1.3,12.3-3.8,17.3c-2.6,5-6.3,9.2-11.2,12.4c-4.9,3.2-10.8,5.4-17.7,6.6
			c7.4,1,13.7,3.2,18.9,6.7c5.2,3.5,9.2,8,12,13.6c2.7,5.6,4.1,12.1,4.1,19.5v0.3c0,9.6-2,17.8-6,24.6c-4,6.8-9.9,12-17.6,15.6
			s-17,5.3-27.8,5.3h-56.4V641.6z"/>
		<path d="M1476.9,607.4V672h-31.5v-64.5l-49.2-102.8h33l32,72l32-72h33L1476.9,607.4z"/>
		<path d="M1512.2,504.6h122.7V535h-122.7V504.6z M1557.8,518.3h31.5V672h-31.5V518.3z"/>
		<path d="M1645.2,504.6h31.5V672h-31.5V504.6z M1656.5,504.6h100.7V535h-100.7V504.6z M1656.5,573.7h88v30.4h-88V573.7z
			 M1656.5,641.6h100.7V672h-100.7V641.6z"/>
	</g>
</g>
<g id="Capa_1_00000078033449017457771350000012008871282906601106_" class="st0">
	<g class="st1">
		<g>
			<line class="st2" x1="-74.1" y1="1110" x2="1997.8" y2="1110"/>
			<line class="st3" x1="-74.1" y1="1110" x2="1997.8" y2="1110"/>
		</g>
		<g>
			<line class="st2" x1="-74.1" y1="1073" x2="1997.8" y2="1073"/>
			<line class="st3" x1="-74.1" y1="1073" x2="1997.8" y2="1073"/>
		</g>
		<g>
			<line class="st2" x1="-74.1" y1="1036" x2="1997.8" y2="1036"/>
			<line class="st3" x1="-74.1" y1="1036" x2="1997.8" y2="1036"/>
		</g>
		<g>
			<line class="st2" x1="-74.1" y1="999" x2="1997.8" y2="999"/>
			<line class="st3" x1="-74.1" y1="999" x2="1997.8" y2="999"/>
		</g>
		<g>
			<line class="st2" x1="-74.1" y1="962" x2="1997.8" y2="962"/>
			<line class="st3" x1="-74.1" y1="962" x2="1997.8" y2="962"/>
		</g>
		<g>
			<line class="st2" x1="-74.1" y1="925" x2="1997.8" y2="925"/>
			<line class="st3" x1="-74.1" y1="925" x2="1997.8" y2="925"/>
		</g>
		<g>
			<line class="st2" x1="-74.1" y1="888" x2="1997.8" y2="888"/>
			<line class="st3" x1="-74.1" y1="888" x2="1997.8" y2="888"/>
		</g>
		<g>
			<line class="st2" x1="-74.1" y1="851" x2="1997.8" y2="851"/>
			<line class="st3" x1="-74.1" y1="851" x2="1997.8" y2="851"/>
		</g>
		<g>
			<line class="st2" x1="-74.1" y1="814" x2="1997.8" y2="814"/>
			<line class="st3" x1="-74.1" y1="814" x2="1997.8" y2="814"/>
		</g>
		<g>
			<line class="st2" x1="-74.1" y1="777" x2="1997.8" y2="777"/>
			<line class="st3" x1="-74.1" y1="777" x2="1997.8" y2="777"/>
		</g>
		<g>
			<line class="st2" x1="-74.1" y1="740" x2="1997.8" y2="740"/>
			<line class="st3" x1="-74.1" y1="740" x2="1997.8" y2="740"/>
		</g>
		<g>
			<line class="st2" x1="-74.1" y1="703" x2="1997.8" y2="703"/>
			<line class="st3" x1="-74.1" y1="703" x2="1997.8" y2="703"/>
		</g>
		<g>
			<line class="st2" x1="-74.1" y1="666" x2="1997.8" y2="666"/>
			<line class="st3" x1="-74.1" y1="666" x2="1997.8" y2="666"/>
		</g>
		<g>
			<line class="st2" x1="-74.1" y1="629" x2="1997.8" y2="629"/>
			<line class="st3" x1="-74.1" y1="629" x2="1997.8" y2="629"/>
		</g>
		<g>
			<line class="st2" x1="-74.1" y1="592" x2="1997.8" y2="592"/>
			<line class="st3" x1="-74.1" y1="592" x2="1997.8" y2="592"/>
		</g>
		<g>
			<line class="st2" x1="-74.1" y1="555" x2="1997.8" y2="555"/>
			<line class="st3" x1="-74.1" y1="555" x2="1997.8" y2="555"/>
		</g>
		<g>
			<line class="st2" x1="-74.1" y1="518" x2="1997.8" y2="518"/>
			<line class="st3" x1="-74.1" y1="518" x2="1997.8" y2="518"/>
		</g>
		<g>
			<line class="st2" x1="-74.1" y1="481" x2="1997.8" y2="481"/>
			<line class="st3" x1="-74.1" y1="481" x2="1997.8" y2="481"/>
		</g>
		<g>
			<line class="st2" x1="-74.1" y1="444" x2="1997.8" y2="444"/>
			<line class="st3" x1="-74.1" y1="444" x2="1997.8" y2="444"/>
		</g>
		<g>
			<line class="st2" x1="-74.1" y1="407" x2="1997.8" y2="407"/>
			<line class="st3" x1="-74.1" y1="407" x2="1997.8" y2="407"/>
		</g>
		<g>
			<line class="st2" x1="-74.1" y1="370" x2="1997.8" y2="370"/>
			<line class="st3" x1="-74.1" y1="370" x2="1997.8" y2="370"/>
		</g>
		<g>
			<line class="st2" x1="-74.1" y1="333" x2="1997.8" y2="333"/>
			<line class="st3" x1="-74.1" y1="333" x2="1997.8" y2="333"/>
		</g>
		<g>
			<line class="st2" x1="-74.1" y1="296" x2="1997.8" y2="296"/>
			<line class="st3" x1="-74.1" y1="296" x2="1997.8" y2="296"/>
		</g>
		<g>
			<line class="st2" x1="-74.1" y1="259" x2="1997.8" y2="259"/>
			<line class="st3" x1="-74.1" y1="259" x2="1997.8" y2="259"/>
		</g>
		<g>
			<line class="st2" x1="-74.1" y1="222" x2="1997.8" y2="222"/>
			<line class="st3" x1="-74.1" y1="222" x2="1997.8" y2="222"/>
		</g>
		<g>
			<line class="st2" x1="-74.1" y1="185" x2="1997.8" y2="185"/>
			<line class="st3" x1="-74.1" y1="185" x2="1997.8" y2="185"/>
		</g>
		<g>
			<line class="st2" x1="-74.1" y1="148" x2="1997.8" y2="148"/>
			<line class="st3" x1="-74.1" y1="148" x2="1997.8" y2="148"/>
		</g>
		<g>
			<line class="st2" x1="-74.1" y1="111" x2="1997.8" y2="111"/>
			<line class="st3" x1="-74.1" y1="111" x2="1997.8" y2="111"/>
		</g>
		<g>
			<line class="st2" x1="-74.1" y1="74" x2="1997.8" y2="74"/>
			<line class="st3" x1="-74.1" y1="74" x2="1997.8" y2="74"/>
		</g>
		<g>
			<line class="st2" x1="-74.1" y1="37" x2="1997.8" y2="37"/>
			<line class="st3" x1="-74.1" y1="37" x2="1997.8" y2="37"/>
		</g>
		<g>
			<line class="st2" x1="-74.1" y1="0" x2="1997.8" y2="0"/>
			<line class="st3" x1="-74.1" y1="0" x2="1997.8" y2="0"/>
		</g>
	</g>
	<g class="st1">
		<g>
			<line class="st2" x1="1924" y1="-52.9" x2="1924" y2="1144.9"/>
			<line class="st3" x1="1924" y1="-52.9" x2="1924" y2="1144.9"/>
		</g>
		<g>
			<line class="st2" x1="1887" y1="-52.9" x2="1887" y2="1144.9"/>
			<line class="st3" x1="1887" y1="-52.9" x2="1887" y2="1144.9"/>
		</g>
		<g>
			<line class="st2" x1="1850" y1="-52.9" x2="1850" y2="1144.9"/>
			<line class="st3" x1="1850" y1="-52.9" x2="1850" y2="1144.9"/>
		</g>
		<g>
			<line class="st2" x1="1813" y1="-52.9" x2="1813" y2="1144.9"/>
			<line class="st3" x1="1813" y1="-52.9" x2="1813" y2="1144.9"/>
		</g>
		<g>
			<line class="st2" x1="1776" y1="-52.9" x2="1776" y2="1144.9"/>
			<line class="st3" x1="1776" y1="-52.9" x2="1776" y2="1144.9"/>
		</g>
		<g>
			<line class="st2" x1="1739" y1="-52.9" x2="1739" y2="1144.9"/>
			<line class="st3" x1="1739" y1="-52.9" x2="1739" y2="1144.9"/>
		</g>
		<g>
			<line class="st2" x1="1702" y1="-52.9" x2="1702" y2="1144.9"/>
			<line class="st3" x1="1702" y1="-52.9" x2="1702" y2="1144.9"/>
		</g>
		<g>
			<line class="st2" x1="1665" y1="-52.9" x2="1665" y2="1144.9"/>
			<line class="st3" x1="1665" y1="-52.9" x2="1665" y2="1144.9"/>
		</g>
		<g>
			<line class="st2" x1="1628" y1="-52.9" x2="1628" y2="1144.9"/>
			<line class="st3" x1="1628" y1="-52.9" x2="1628" y2="1144.9"/>
		</g>
		<g>
			<line class="st2" x1="1591" y1="-52.9" x2="1591" y2="1144.9"/>
			<line class="st3" x1="1591" y1="-52.9" x2="1591" y2="1144.9"/>
		</g>
		<g>
			<line class="st2" x1="1554" y1="-52.9" x2="1554" y2="1144.9"/>
			<line class="st3" x1="1554" y1="-52.9" x2="1554" y2="1144.9"/>
		</g>
		<g>
			<line class="st2" x1="1517" y1="-52.9" x2="1517" y2="1144.9"/>
			<line class="st3" x1="1517" y1="-52.9" x2="1517" y2="1144.9"/>
		</g>
		<g>
			<line class="st2" x1="1480" y1="-52.9" x2="1480" y2="1144.9"/>
			<line class="st3" x1="1480" y1="-52.9" x2="1480" y2="1144.9"/>
		</g>
		<g>
			<line class="st2" x1="1443" y1="-52.9" x2="1443" y2="1144.9"/>
			<line class="st3" x1="1443" y1="-52.9" x2="1443" y2="1144.9"/>
		</g>
		<g>
			<line class="st2" x1="1406" y1="-52.9" x2="1406" y2="1144.9"/>
			<line class="st3" x1="1406" y1="-52.9" x2="1406" y2="1144.9"/>
		</g>
		<g>
			<line class="st2" x1="1369" y1="-52.9" x2="1369" y2="1144.9"/>
			<line class="st3" x1="1369" y1="-52.9" x2="1369" y2="1144.9"/>
		</g>
		<g>
			<line class="st2" x1="1332" y1="-52.9" x2="1332" y2="1144.9"/>
			<line class="st3" x1="1332" y1="-52.9" x2="1332" y2="1144.9"/>
		</g>
		<g>
			<line class="st2" x1="1295" y1="-52.9" x2="1295" y2="1144.9"/>
			<line class="st3" x1="1295" y1="-52.9" x2="1295" y2="1144.9"/>
		</g>
		<g>
			<line class="st2" x1="1258" y1="-52.9" x2="1258" y2="1144.9"/>
			<line class="st3" x1="1258" y1="-52.9" x2="1258" y2="1144.9"/>
		</g>
		<g>
			<line class="st2" x1="1221" y1="-52.9" x2="1221" y2="1144.9"/>
			<line class="st3" x1="1221" y1="-52.9" x2="1221" y2="1144.9"/>
		</g>
		<g>
			<line class="st2" x1="1184" y1="-52.9" x2="1184" y2="1144.9"/>
			<line class="st3" x1="1184" y1="-52.9" x2="1184" y2="1144.9"/>
		</g>
		<g>
			<line class="st2" x1="1147" y1="-52.9" x2="1147" y2="1144.9"/>
			<line class="st3" x1="1147" y1="-52.9" x2="1147" y2="1144.9"/>
		</g>
		<g>
			<line class="st2" x1="1110" y1="-52.9" x2="1110" y2="1144.9"/>
			<line class="st3" x1="1110" y1="-52.9" x2="1110" y2="1144.9"/>
		</g>
		<g>
			<line class="st2" x1="1073" y1="-52.9" x2="1073" y2="1144.9"/>
			<line class="st3" x1="1073" y1="-52.9" x2="1073" y2="1144.9"/>
		</g>
		<g>
			<line class="st2" x1="1036" y1="-52.9" x2="1036" y2="1144.9"/>
			<line class="st3" x1="1036" y1="-52.9" x2="1036" y2="1144.9"/>
		</g>
		<g>
			<line class="st2" x1="999" y1="-52.9" x2="999" y2="1144.9"/>
			<line class="st3" x1="999" y1="-52.9" x2="999" y2="1144.9"/>
		</g>
		<g>
			<line class="st2" x1="962" y1="-52.9" x2="962" y2="1144.9"/>
			<line class="st3" x1="962" y1="-52.9" x2="962" y2="1144.9"/>
		</g>
		<g>
			<line class="st2" x1="925" y1="-52.9" x2="925" y2="1144.9"/>
			<line class="st3" x1="925" y1="-52.9" x2="925" y2="1144.9"/>
		</g>
		<g>
			<line class="st2" x1="888" y1="-52.9" x2="888" y2="1144.9"/>
			<line class="st3" x1="888" y1="-52.9" x2="888" y2="1144.9"/>
		</g>
		<g>
			<line class="st2" x1="851" y1="-52.9" x2="851" y2="1144.9"/>
			<line class="st3" x1="851" y1="-52.9" x2="851" y2="1144.9"/>
		</g>
		<g>
			<line class="st2" x1="814" y1="-52.9" x2="814" y2="1144.9"/>
			<line class="st3" x1="814" y1="-52.9" x2="814" y2="1144.9"/>
		</g>
		<g>
			<line class="st2" x1="777" y1="-52.9" x2="777" y2="1144.9"/>
			<line class="st3" x1="777" y1="-52.9" x2="777" y2="1144.9"/>
		</g>
		<g>
			<line class="st2" x1="740" y1="-52.9" x2="740" y2="1144.9"/>
			<line class="st3" x1="740" y1="-52.9" x2="740" y2="1144.9"/>
		</g>
		<g>
			<line class="st2" x1="703" y1="-52.9" x2="703" y2="1144.9"/>
			<line class="st3" x1="703" y1="-52.9" x2="703" y2="1144.9"/>
		</g>
		<g>
			<line class="st2" x1="666" y1="-52.9" x2="666" y2="1144.9"/>
			<line class="st3" x1="666" y1="-52.9" x2="666" y2="1144.9"/>
		</g>
		<g>
			<line class="st2" x1="629" y1="-52.9" x2="629" y2="1144.9"/>
			<line class="st3" x1="629" y1="-52.9" x2="629" y2="1144.9"/>
		</g>
		<g>
			<line class="st2" x1="592" y1="-52.9" x2="592" y2="1144.9"/>
			<line class="st3" x1="592" y1="-52.9" x2="592" y2="1144.9"/>
		</g>
		<g>
			<line class="st2" x1="555" y1="-52.9" x2="555" y2="1144.9"/>
			<line class="st3" x1="555" y1="-52.9" x2="555" y2="1144.9"/>
		</g>
		<g>
			<line class="st2" x1="518" y1="-52.9" x2="518" y2="1144.9"/>
			<line class="st3" x1="518" y1="-52.9" x2="518" y2="1144.9"/>
		</g>
		<g>
			<line class="st2" x1="481" y1="-52.9" x2="481" y2="1144.9"/>
			<line class="st3" x1="481" y1="-52.9" x2="481" y2="1144.9"/>
		</g>
		<g>
			<line class="st2" x1="444" y1="-52.9" x2="444" y2="1144.9"/>
			<line class="st3" x1="444" y1="-52.9" x2="444" y2="1144.9"/>
		</g>
		<g>
			<line class="st2" x1="407" y1="-52.9" x2="407" y2="1144.9"/>
			<line class="st3" x1="407" y1="-52.9" x2="407" y2="1144.9"/>
		</g>
		<g>
			<line class="st2" x1="370" y1="-52.9" x2="370" y2="1144.9"/>
			<line class="st3" x1="370" y1="-52.9" x2="370" y2="1144.9"/>
		</g>
		<g>
			<line class="st2" x1="333" y1="-52.9" x2="333" y2="1144.9"/>
			<line class="st3" x1="333" y1="-52.9" x2="333" y2="1144.9"/>
		</g>
		<g>
			<line class="st2" x1="296" y1="-52.9" x2="296" y2="1144.9"/>
			<line class="st3" x1="296" y1="-52.9" x2="296" y2="1144.9"/>
		</g>
		<g>
			<line class="st2" x1="259" y1="-52.9" x2="259" y2="1144.9"/>
			<line class="st3" x1="259" y1="-52.9" x2="259" y2="1144.9"/>
		</g>
		<g>
			<line class="st2" x1="222" y1="-52.9" x2="222" y2="1144.9"/>
			<line class="st3" x1="222" y1="-52.9" x2="222" y2="1144.9"/>
		</g>
		<g>
			<line class="st2" x1="185" y1="-52.9" x2="185" y2="1144.9"/>
			<line class="st3" x1="185" y1="-52.9" x2="185" y2="1144.9"/>
		</g>
		<g>
			<line class="st2" x1="148" y1="-52.9" x2="148" y2="1144.9"/>
			<line class="st3" x1="148" y1="-52.9" x2="148" y2="1144.9"/>
		</g>
		<g>
			<line class="st2" x1="111" y1="-52.9" x2="111" y2="1144.9"/>
			<line class="st3" x1="111" y1="-52.9" x2="111" y2="1144.9"/>
		</g>
		<g>
			<line class="st2" x1="74" y1="-52.9" x2="74" y2="1144.9"/>
			<line class="st3" x1="74" y1="-52.9" x2="74" y2="1144.9"/>
		</g>
		<g>
			<line class="st2" x1="37" y1="-52.9" x2="37" y2="1144.9"/>
			<line class="st3" x1="37" y1="-52.9" x2="37" y2="1144.9"/>
		</g>
		<g>
			<line class="st2" x1="0" y1="-52.9" x2="0" y2="1144.9"/>
			<line class="st3" x1="0" y1="-52.9" x2="0" y2="1144.9"/>
		</g>
	</g>
</g>
</svg>
