<?xml version="1.0" encoding="utf-8"?>
<!-- Generator: Adobe Illustrator 28.0.0, SVG Export Plug-In . SVG Version: 6.00 Build 0)  -->
<svg version="1.1" xmlns="http://www.w3.org/2000/svg" xmlns:xlink="http://www.w3.org/1999/xlink" x="0px" y="0px"
	 viewBox="0 0 1920 1080" style="enable-background:new 0 0 1920 1080;" xml:space="preserve">
<style type="text/css">
	.st0{display:none;}
	.st1{display:inline;}
	.st2{fill:none;stroke:#000000;stroke-miterlimit:10;}
</style>
<g id="Capa_2">
	<g>
		<path d="M435.41,614.94l-105.92-56.06c-7.53-3.98-16.59,1.47-16.59,9.99v12.16h-26.93c-3.72,0-6.73,3.01-6.73,6.73v6.73
			c0,3.72,3.01,6.73,6.73,6.73h26.93h13.47c3.72,0,6.73,3.01,6.73,6.73v6.73c0,3.72,3.01,6.73,6.73,6.73h10.1
			c3.72,0,6.73,3.01,6.73,6.73v6.73c0,3.72-3.01,6.73-6.73,6.73h-37.03h-13.47c-3.72,0-6.73,3.01-6.73,6.73v6.73
			c0,3.72,3.01,6.73,6.73,6.73h13.47v19.15c0,8.52,9.06,13.98,16.59,9.99l105.92-56.06C443.43,630.68,443.43,619.18,435.41,614.94z"
			/>
		<path d="M625.98,530.54h-13.47v-57.23H209.03l-67.83-48.69v48.69v195.26h-13.47c-3.72,0-6.73,3.01-6.73,6.73v20.2
			c0,3.72,3.01,6.73,6.73,6.73h13.47v6.73c0,37.13,30.2,67.33,67.33,67.33h336.65c37.13,0,67.33-30.21,67.33-67.33v-12.74h-10.1
			c-3.72,0-6.73-3.01-6.73-6.73v-20.2c0-3.72,3.01-6.73,6.73-6.73h10.1v-98.36h13.47c3.72,0,6.73-3.01,6.73-6.73v-20.2
			C632.71,533.55,629.7,530.54,625.98,530.54z M599.05,563.16c-1.44,0.65-3.03,1.04-4.72,1.04h-15.48v97.63h-26.93
			c-3.72,0-6.73,3.01-6.73,6.73v20.2c0,3.72,3.01,6.73,6.73,6.73h26.93v13.47c0,18.56-15.1,33.67-33.67,33.67H208.53
			c-18.56,0-33.67-15.1-33.67-33.67v-6.73h-16.83c-1.23,0-2.37-0.36-3.37-0.93v-31.8c0.99-0.58,2.13-0.93,3.37-0.93h16.83V506.97
			h403.99v23.57h19.32c0.3,0,0.59,0.05,0.88,0.09V563.16z"/>
		<polygon points="328.31,414.79 281.88,359.65 215,382.9 259.81,438.61 		"/>
		<polygon points="483.94,359.65 438.03,304.33 331.72,341.3 383.65,394.52 		"/>
		<polygon points="607.13,317.11 585.02,253.51 490.69,286.31 535.25,342.1 		"/>
	</g>
	<g>
		<g>
			<path d="M743.49,666.37c-9.05-4.87-15.96-11.97-20.71-21.29c-4.76-9.32-7.13-20.58-7.13-33.77V565.4
				c0-13.19,2.38-24.45,7.13-33.77c4.76-9.32,11.66-16.44,20.71-21.35c9.05-4.91,19.94-7.36,32.68-7.36
				c10.51,0,19.91,2.26,28.19,6.79c8.28,4.53,15.13,11.1,20.54,19.73c5.41,8.63,9.15,19.04,11.22,31.24h-32.68
				c-1.23-5.52-3.13-10.24-5.7-14.15c-2.57-3.91-5.68-6.9-9.32-8.98c-3.64-2.07-7.73-3.11-12.25-3.11c-5.91,0-10.93,1.21-15.07,3.62
				c-4.14,2.42-7.31,5.95-9.49,10.59c-2.19,4.64-3.28,10.22-3.28,16.74v45.91c0,6.52,1.09,12.08,3.28,16.68
				c2.19,4.6,5.35,8.11,9.49,10.53c4.14,2.42,9.17,3.62,15.07,3.62c4.6,0,8.75-1.02,12.43-3.05c3.68-2.03,6.79-5.01,9.32-8.92
				c2.53-3.91,4.37-8.67,5.52-14.27h32.68c-2.15,12.2-5.93,22.61-11.33,31.24s-12.24,15.21-20.48,19.73
				c-8.25,4.53-17.62,6.79-28.13,6.79C763.44,673.68,752.55,671.24,743.49,666.37z"/>
			<path d="M891.73,671.95h-32.68V504.64h32.68V671.95z"/>
			<path d="M922.72,504.64h38.55l62.25,128.19l-2.76,2.99V504.64h30.15v167.19h-38.78l-62.02-126.23l2.76-2.99v129.22h-30.15V504.64
				z"/>
			<path d="M1084.19,504.64h31.53v167.31h-31.53V504.64z M1095.58,504.64h100.68v30.38h-100.68V504.64z M1095.58,573.68h88.03v30.38
				h-88.03V573.68z M1095.58,641.57h100.68v30.38h-100.68V641.57z"/>
			<path d="M1221.5,504.64h31.53v167.31h-31.53V504.64z M1235.31,641.57h53.39c7.21,0,12.79-1.74,16.74-5.24
				c3.95-3.49,5.93-8.38,5.93-14.67v-0.35c0-4.22-0.88-7.82-2.65-10.82c-1.77-2.99-4.35-5.27-7.77-6.85
				c-3.42-1.57-7.5-2.36-12.25-2.36h-53.39v-30.38h53.39c6.52,0,11.56-1.65,15.13-4.95c3.57-3.3,5.35-7.94,5.35-13.92
				c0-5.37-1.78-9.55-5.35-12.54c-3.57-2.99-8.61-4.49-15.13-4.49h-53.39v-30.38h54.43c10.82,0,20.06,1.78,27.73,5.35
				c7.67,3.57,13.5,8.75,17.49,15.53c3.99,6.79,5.98,14.94,5.98,24.45c0,6.52-1.29,12.29-3.85,17.32
				c-2.57,5.03-6.31,9.15-11.22,12.37c-4.91,3.22-10.82,5.41-17.72,6.56c7.36,1,13.67,3.24,18.93,6.73
				c5.25,3.49,9.24,8.04,11.97,13.63c2.72,5.6,4.08,12.08,4.08,19.45v0.34c0,9.59-2.01,17.8-6.04,24.62
				c-4.03,6.83-9.9,12.02-17.61,15.59c-7.71,3.57-16.97,5.35-27.79,5.35h-56.38V641.57z"/>
			<path d="M1426.7,607.4v64.55h-31.53V607.4l-49.25-102.76h33.02l31.99,72.03l31.99-72.03h33.02L1426.7,607.4z"/>
			<path d="M1462.05,504.64h122.66v30.38h-122.66V504.64z M1507.62,518.34h31.53v153.62h-31.53V518.34z"/>
			<path d="M1594.99,504.64h31.53v167.31h-31.53V504.64z M1606.38,504.64h100.68v30.38h-100.68V504.64z M1606.38,573.68h88.03v30.38
				h-88.03V573.68z M1606.38,641.57h100.68v30.38h-100.68V641.57z"/>
		</g>
	</g>
</g>
<g id="Capa_1" class="st0">
	<g class="st1">
		<g>
			<line x1="-74.11" y1="1110" x2="1997.84" y2="1110"/>
			<line class="st2" x1="-74.11" y1="1110" x2="1997.84" y2="1110"/>
		</g>
		<g>
			<line x1="-74.11" y1="1073" x2="1997.84" y2="1073"/>
			<line class="st2" x1="-74.11" y1="1073" x2="1997.84" y2="1073"/>
		</g>
		<g>
			<line x1="-74.11" y1="1036" x2="1997.84" y2="1036"/>
			<line class="st2" x1="-74.11" y1="1036" x2="1997.84" y2="1036"/>
		</g>
		<g>
			<line x1="-74.11" y1="999" x2="1997.84" y2="999"/>
			<line class="st2" x1="-74.11" y1="999" x2="1997.84" y2="999"/>
		</g>
		<g>
			<line x1="-74.11" y1="962" x2="1997.84" y2="962"/>
			<line class="st2" x1="-74.11" y1="962" x2="1997.84" y2="962"/>
		</g>
		<g>
			<line x1="-74.11" y1="925" x2="1997.84" y2="925"/>
			<line class="st2" x1="-74.11" y1="925" x2="1997.84" y2="925"/>
		</g>
		<g>
			<line x1="-74.11" y1="888" x2="1997.84" y2="888"/>
			<line class="st2" x1="-74.11" y1="888" x2="1997.84" y2="888"/>
		</g>
		<g>
			<line x1="-74.11" y1="851" x2="1997.84" y2="851"/>
			<line class="st2" x1="-74.11" y1="851" x2="1997.84" y2="851"/>
		</g>
		<g>
			<line x1="-74.11" y1="814" x2="1997.84" y2="814"/>
			<line class="st2" x1="-74.11" y1="814" x2="1997.84" y2="814"/>
		</g>
		<g>
			<line x1="-74.11" y1="777" x2="1997.84" y2="777"/>
			<line class="st2" x1="-74.11" y1="777" x2="1997.84" y2="777"/>
		</g>
		<g>
			<line x1="-74.11" y1="740" x2="1997.84" y2="740"/>
			<line class="st2" x1="-74.11" y1="740" x2="1997.84" y2="740"/>
		</g>
		<g>
			<line x1="-74.11" y1="703" x2="1997.84" y2="703"/>
			<line class="st2" x1="-74.11" y1="703" x2="1997.84" y2="703"/>
		</g>
		<g>
			<line x1="-74.11" y1="666" x2="1997.84" y2="666"/>
			<line class="st2" x1="-74.11" y1="666" x2="1997.84" y2="666"/>
		</g>
		<g>
			<line x1="-74.11" y1="629" x2="1997.84" y2="629"/>
			<line class="st2" x1="-74.11" y1="629" x2="1997.84" y2="629"/>
		</g>
		<g>
			<line x1="-74.11" y1="592" x2="1997.84" y2="592"/>
			<line class="st2" x1="-74.11" y1="592" x2="1997.84" y2="592"/>
		</g>
		<g>
			<line x1="-74.11" y1="555" x2="1997.84" y2="555"/>
			<line class="st2" x1="-74.11" y1="555" x2="1997.84" y2="555"/>
		</g>
		<g>
			<line x1="-74.11" y1="518" x2="1997.84" y2="518"/>
			<line class="st2" x1="-74.11" y1="518" x2="1997.84" y2="518"/>
		</g>
		<g>
			<line x1="-74.11" y1="481" x2="1997.84" y2="481"/>
			<line class="st2" x1="-74.11" y1="481" x2="1997.84" y2="481"/>
		</g>
		<g>
			<line x1="-74.11" y1="444" x2="1997.84" y2="444"/>
			<line class="st2" x1="-74.11" y1="444" x2="1997.84" y2="444"/>
		</g>
		<g>
			<line x1="-74.11" y1="407" x2="1997.84" y2="407"/>
			<line class="st2" x1="-74.11" y1="407" x2="1997.84" y2="407"/>
		</g>
		<g>
			<line x1="-74.11" y1="370" x2="1997.84" y2="370"/>
			<line class="st2" x1="-74.11" y1="370" x2="1997.84" y2="370"/>
		</g>
		<g>
			<line x1="-74.11" y1="333" x2="1997.84" y2="333"/>
			<line class="st2" x1="-74.11" y1="333" x2="1997.84" y2="333"/>
		</g>
		<g>
			<line x1="-74.11" y1="296" x2="1997.84" y2="296"/>
			<line class="st2" x1="-74.11" y1="296" x2="1997.84" y2="296"/>
		</g>
		<g>
			<line x1="-74.11" y1="259" x2="1997.84" y2="259"/>
			<line class="st2" x1="-74.11" y1="259" x2="1997.84" y2="259"/>
		</g>
		<g>
			<line x1="-74.11" y1="222" x2="1997.84" y2="222"/>
			<line class="st2" x1="-74.11" y1="222" x2="1997.84" y2="222"/>
		</g>
		<g>
			<line x1="-74.11" y1="185" x2="1997.84" y2="185"/>
			<line class="st2" x1="-74.11" y1="185" x2="1997.84" y2="185"/>
		</g>
		<g>
			<line x1="-74.11" y1="148" x2="1997.84" y2="148"/>
			<line class="st2" x1="-74.11" y1="148" x2="1997.84" y2="148"/>
		</g>
		<g>
			<line x1="-74.11" y1="111" x2="1997.84" y2="111"/>
			<line class="st2" x1="-74.11" y1="111" x2="1997.84" y2="111"/>
		</g>
		<g>
			<line x1="-74.11" y1="74" x2="1997.84" y2="74"/>
			<line class="st2" x1="-74.11" y1="74" x2="1997.84" y2="74"/>
		</g>
		<g>
			<line x1="-74.11" y1="37" x2="1997.84" y2="37"/>
			<line class="st2" x1="-74.11" y1="37" x2="1997.84" y2="37"/>
		</g>
		<g>
			<line x1="-74.11" y1="0" x2="1997.84" y2="0"/>
			<line class="st2" x1="-74.11" y1="0" x2="1997.84" y2="0"/>
		</g>
	</g>
	<g class="st1">
		<g>
			<line x1="1924" y1="-52.94" x2="1924" y2="1144.92"/>
			<line class="st2" x1="1924" y1="-52.94" x2="1924" y2="1144.92"/>
		</g>
		<g>
			<line x1="1887" y1="-52.94" x2="1887" y2="1144.92"/>
			<line class="st2" x1="1887" y1="-52.94" x2="1887" y2="1144.92"/>
		</g>
		<g>
			<line x1="1850" y1="-52.94" x2="1850" y2="1144.92"/>
			<line class="st2" x1="1850" y1="-52.94" x2="1850" y2="1144.92"/>
		</g>
		<g>
			<line x1="1813" y1="-52.94" x2="1813" y2="1144.92"/>
			<line class="st2" x1="1813" y1="-52.94" x2="1813" y2="1144.92"/>
		</g>
		<g>
			<line x1="1776" y1="-52.94" x2="1776" y2="1144.92"/>
			<line class="st2" x1="1776" y1="-52.94" x2="1776" y2="1144.92"/>
		</g>
		<g>
			<line x1="1739" y1="-52.94" x2="1739" y2="1144.92"/>
			<line class="st2" x1="1739" y1="-52.94" x2="1739" y2="1144.92"/>
		</g>
		<g>
			<line x1="1702" y1="-52.94" x2="1702" y2="1144.92"/>
			<line class="st2" x1="1702" y1="-52.94" x2="1702" y2="1144.92"/>
		</g>
		<g>
			<line x1="1665" y1="-52.94" x2="1665" y2="1144.92"/>
			<line class="st2" x1="1665" y1="-52.94" x2="1665" y2="1144.92"/>
		</g>
		<g>
			<line x1="1628" y1="-52.94" x2="1628" y2="1144.92"/>
			<line class="st2" x1="1628" y1="-52.94" x2="1628" y2="1144.92"/>
		</g>
		<g>
			<line x1="1591" y1="-52.94" x2="1591" y2="1144.92"/>
			<line class="st2" x1="1591" y1="-52.94" x2="1591" y2="1144.92"/>
		</g>
		<g>
			<line x1="1554" y1="-52.94" x2="1554" y2="1144.92"/>
			<line class="st2" x1="1554" y1="-52.94" x2="1554" y2="1144.92"/>
		</g>
		<g>
			<line x1="1517" y1="-52.94" x2="1517" y2="1144.92"/>
			<line class="st2" x1="1517" y1="-52.94" x2="1517" y2="1144.92"/>
		</g>
		<g>
			<line x1="1480" y1="-52.94" x2="1480" y2="1144.92"/>
			<line class="st2" x1="1480" y1="-52.94" x2="1480" y2="1144.92"/>
		</g>
		<g>
			<line x1="1443" y1="-52.94" x2="1443" y2="1144.92"/>
			<line class="st2" x1="1443" y1="-52.94" x2="1443" y2="1144.92"/>
		</g>
		<g>
			<line x1="1406" y1="-52.94" x2="1406" y2="1144.92"/>
			<line class="st2" x1="1406" y1="-52.94" x2="1406" y2="1144.92"/>
		</g>
		<g>
			<line x1="1369" y1="-52.94" x2="1369" y2="1144.92"/>
			<line class="st2" x1="1369" y1="-52.94" x2="1369" y2="1144.92"/>
		</g>
		<g>
			<line x1="1332" y1="-52.94" x2="1332" y2="1144.92"/>
			<line class="st2" x1="1332" y1="-52.94" x2="1332" y2="1144.92"/>
		</g>
		<g>
			<line x1="1295" y1="-52.94" x2="1295" y2="1144.92"/>
			<line class="st2" x1="1295" y1="-52.94" x2="1295" y2="1144.92"/>
		</g>
		<g>
			<line x1="1258" y1="-52.94" x2="1258" y2="1144.92"/>
			<line class="st2" x1="1258" y1="-52.94" x2="1258" y2="1144.92"/>
		</g>
		<g>
			<line x1="1221" y1="-52.94" x2="1221" y2="1144.92"/>
			<line class="st2" x1="1221" y1="-52.94" x2="1221" y2="1144.92"/>
		</g>
		<g>
			<line x1="1184" y1="-52.94" x2="1184" y2="1144.92"/>
			<line class="st2" x1="1184" y1="-52.94" x2="1184" y2="1144.92"/>
		</g>
		<g>
			<line x1="1147" y1="-52.94" x2="1147" y2="1144.92"/>
			<line class="st2" x1="1147" y1="-52.94" x2="1147" y2="1144.92"/>
		</g>
		<g>
			<line x1="1110" y1="-52.94" x2="1110" y2="1144.92"/>
			<line class="st2" x1="1110" y1="-52.94" x2="1110" y2="1144.92"/>
		</g>
		<g>
			<line x1="1073" y1="-52.94" x2="1073" y2="1144.92"/>
			<line class="st2" x1="1073" y1="-52.94" x2="1073" y2="1144.92"/>
		</g>
		<g>
			<line x1="1036" y1="-52.94" x2="1036" y2="1144.92"/>
			<line class="st2" x1="1036" y1="-52.94" x2="1036" y2="1144.92"/>
		</g>
		<g>
			<line x1="999" y1="-52.94" x2="999" y2="1144.92"/>
			<line class="st2" x1="999" y1="-52.94" x2="999" y2="1144.92"/>
		</g>
		<g>
			<line x1="962" y1="-52.94" x2="962" y2="1144.92"/>
			<line class="st2" x1="962" y1="-52.94" x2="962" y2="1144.92"/>
		</g>
		<g>
			<line x1="925" y1="-52.94" x2="925" y2="1144.92"/>
			<line class="st2" x1="925" y1="-52.94" x2="925" y2="1144.92"/>
		</g>
		<g>
			<line x1="888" y1="-52.94" x2="888" y2="1144.92"/>
			<line class="st2" x1="888" y1="-52.94" x2="888" y2="1144.92"/>
		</g>
		<g>
			<line x1="851" y1="-52.94" x2="851" y2="1144.92"/>
			<line class="st2" x1="851" y1="-52.94" x2="851" y2="1144.92"/>
		</g>
		<g>
			<line x1="814" y1="-52.94" x2="814" y2="1144.92"/>
			<line class="st2" x1="814" y1="-52.94" x2="814" y2="1144.92"/>
		</g>
		<g>
			<line x1="777" y1="-52.94" x2="777" y2="1144.92"/>
			<line class="st2" x1="777" y1="-52.94" x2="777" y2="1144.92"/>
		</g>
		<g>
			<line x1="740" y1="-52.94" x2="740" y2="1144.92"/>
			<line class="st2" x1="740" y1="-52.94" x2="740" y2="1144.92"/>
		</g>
		<g>
			<line x1="703" y1="-52.94" x2="703" y2="1144.92"/>
			<line class="st2" x1="703" y1="-52.94" x2="703" y2="1144.92"/>
		</g>
		<g>
			<line x1="666" y1="-52.94" x2="666" y2="1144.92"/>
			<line class="st2" x1="666" y1="-52.94" x2="666" y2="1144.92"/>
		</g>
		<g>
			<line x1="629" y1="-52.94" x2="629" y2="1144.92"/>
			<line class="st2" x1="629" y1="-52.94" x2="629" y2="1144.92"/>
		</g>
		<g>
			<line x1="592" y1="-52.94" x2="592" y2="1144.92"/>
			<line class="st2" x1="592" y1="-52.94" x2="592" y2="1144.92"/>
		</g>
		<g>
			<line x1="555" y1="-52.94" x2="555" y2="1144.92"/>
			<line class="st2" x1="555" y1="-52.94" x2="555" y2="1144.92"/>
		</g>
		<g>
			<line x1="518" y1="-52.94" x2="518" y2="1144.92"/>
			<line class="st2" x1="518" y1="-52.94" x2="518" y2="1144.92"/>
		</g>
		<g>
			<line x1="481" y1="-52.94" x2="481" y2="1144.92"/>
			<line class="st2" x1="481" y1="-52.94" x2="481" y2="1144.92"/>
		</g>
		<g>
			<line x1="444" y1="-52.94" x2="444" y2="1144.92"/>
			<line class="st2" x1="444" y1="-52.94" x2="444" y2="1144.92"/>
		</g>
		<g>
			<line x1="407" y1="-52.94" x2="407" y2="1144.92"/>
			<line class="st2" x1="407" y1="-52.94" x2="407" y2="1144.92"/>
		</g>
		<g>
			<line x1="370" y1="-52.94" x2="370" y2="1144.92"/>
			<line class="st2" x1="370" y1="-52.94" x2="370" y2="1144.92"/>
		</g>
		<g>
			<line x1="333" y1="-52.94" x2="333" y2="1144.92"/>
			<line class="st2" x1="333" y1="-52.94" x2="333" y2="1144.92"/>
		</g>
		<g>
			<line x1="296" y1="-52.94" x2="296" y2="1144.92"/>
			<line class="st2" x1="296" y1="-52.94" x2="296" y2="1144.92"/>
		</g>
		<g>
			<line x1="259" y1="-52.94" x2="259" y2="1144.92"/>
			<line class="st2" x1="259" y1="-52.94" x2="259" y2="1144.92"/>
		</g>
		<g>
			<line x1="222" y1="-52.94" x2="222" y2="1144.92"/>
			<line class="st2" x1="222" y1="-52.94" x2="222" y2="1144.92"/>
		</g>
		<g>
			<line x1="185" y1="-52.94" x2="185" y2="1144.92"/>
			<line class="st2" x1="185" y1="-52.94" x2="185" y2="1144.92"/>
		</g>
		<g>
			<line x1="148" y1="-52.94" x2="148" y2="1144.92"/>
			<line class="st2" x1="148" y1="-52.94" x2="148" y2="1144.92"/>
		</g>
		<g>
			<line x1="111" y1="-52.94" x2="111" y2="1144.92"/>
			<line class="st2" x1="111" y1="-52.94" x2="111" y2="1144.92"/>
		</g>
		<g>
			<line x1="74" y1="-52.94" x2="74" y2="1144.92"/>
			<line class="st2" x1="74" y1="-52.94" x2="74" y2="1144.92"/>
		</g>
		<g>
			<line x1="37" y1="-52.94" x2="37" y2="1144.92"/>
			<line class="st2" x1="37" y1="-52.94" x2="37" y2="1144.92"/>
		</g>
		<g>
			<line x1="0" y1="-52.94" x2="0" y2="1144.92"/>
			<line class="st2" x1="0" y1="-52.94" x2="0" y2="1144.92"/>
		</g>
	</g>
</g>
</svg>
