<?xml version="1.0" encoding="utf-8"?>
<!-- Generator: Adobe Illustrator 28.0.0, SVG Export Plug-In . SVG Version: 6.00 Build 0)  -->
<svg version="1.1" xmlns="http://www.w3.org/2000/svg" xmlns:xlink="http://www.w3.org/1999/xlink" x="0px" y="0px"
	 viewBox="0 0 1080 1080" style="enable-background:new 0 0 1080 1080;" xml:space="preserve">
<style type="text/css">
	.st0{display:none;}
	.st1{display:inline;}
	.st2{fill:#FFD700;}
	.st3{fill:none;}
</style>
<g id="Capa_1" class="st0">
	<g id="Capa_1_00000119081920306852198620000003655036514390915995_">
		<g class="st1">
			<path class="st2" d="M633.4,657.6l-174.2-92.2c-12.4-6.6-27.3,2.4-27.3,16.4v20h-44.3c-6.1,0-11.1,5-11.1,11.1V624
				c0,6.1,5,11.1,11.1,11.1h44.3H454c6.1,0,11.1,5,11.1,11.1v11.1c0,6.1,5,11.1,11.1,11.1h16.6c6.1,0,11.1,5,11.1,11.1v11.1
				c0,6.1-5,11.1-11.1,11.1h-60.9h-22.1c-6.1,0-11.1,5-11.1,11.1v11.1c0,6.1,5,11.1,11.1,11.1h22.1v31.5c0,14,14.9,23,27.3,16.4
				l174.2-92.2C646.6,683.5,646.6,664.6,633.4,657.6z"/>
			<path class="st2" d="M946.9,518.7h-22.2v-94.1H261l-111.6-80.1v80.1v321.2h-22.2c-6.1,0-11.1,5-11.1,11.1v33.2
				c0,6.1,5,11.1,11.1,11.1h22.2v11.1c0,61.1,49.7,110.8,110.8,110.8H814c61.1,0,110.8-49.7,110.8-110.8v-21h-16.6
				c-6.1,0-11.1-5-11.1-11.1V747c0-6.1,5-11.1,11.1-11.1h16.6V574.1h22.2c6.1,0,11.1-5,11.1-11.1v-33.2
				C958,523.7,953,518.7,946.9,518.7z M902.6,572.4c-2.4,1.1-5,1.7-7.8,1.7h-25.5v160.6h-44.3c-6.1,0-11.1,5-11.1,11.1V779
				c0,6.1,5,11.1,11.1,11.1h44.3v22.2c0,30.5-24.8,55.4-55.4,55.4H260.2c-30.5,0-55.4-24.8-55.4-55.4v-11.1h-27.7
				c-2,0-3.9-0.6-5.5-1.5v-52.3c1.6-1,3.5-1.5,5.5-1.5h27.7V480h664.6v38.8h31.8c0.5,0,1,0.1,1.5,0.2L902.6,572.4L902.6,572.4z"/>
			<polygon class="st2" points="457.2,328.3 380.9,237.6 270.8,275.9 344.6,367.5 			"/>
			<polygon class="st2" points="713.3,237.6 637.7,146.6 462.8,207.4 548.3,295 			"/>
			<polygon class="st2" points="915.9,167.6 879.5,63 724.4,117 797.7,208.7 			"/>
		</g>
	</g>
	<g id="Capa_3" class="st1">
		<g>
			<path d="M632.7,659.8l-174.1-92.1c-12.4-6.5-27.3,2.4-27.3,16.4v20h-44.3c-6.1,0-11.1,5-11.1,11.1v11.1c0,6.1,5,11.1,11.1,11.1
				h44.3h22.1c6.1,0,11.1,5,11.1,11.1v11.1c0,6.1,5,11.1,11.1,11.1h16.6c6.1,0,11.1,5,11.1,11.1v11.1c0,6.1-5,11.1-11.1,11.1h-60.9
				h-22.1c-6.1,0-11.1,5-11.1,11.1v11.1c0,6.1,5,11.1,11.1,11.1h22.1v31.5c0,14,14.9,23,27.3,16.4l174.1-92.1
				C645.9,685.7,645.9,666.8,632.7,659.8z"/>
			<path d="M945.9,521.1h-22.1V427H260.7l-111.5-80v80v320.9H127c-6.1,0-11.1,5-11.1,11.1v33.2c0,6.1,4.9,11.1,11.1,11.1h22.1v11.1
				c0,61,49.6,110.7,110.7,110.7h553.3c61,0,110.7-49.6,110.7-110.7v-20.9h-16.6c-6.1,0-11.1-5-11.1-11.1v-33.2
				c0-6.1,5-11.1,11.1-11.1h16.6V576.4h22.1c6.1,0,11.1-5,11.1-11.1v-33.2C957,526,952,521.1,945.9,521.1z M901.7,574.7
				c-2.4,1.1-5,1.7-7.8,1.7h-25.4v160.5h-44.3c-6.1,0-11.1,5-11.1,11.1v33.2c0,6.1,5,11.1,11.1,11.1h44.3v22.1
				c0,30.5-24.8,55.3-55.3,55.3H259.8c-30.5,0-55.3-24.8-55.3-55.3v-11.1h-27.7c-2,0-3.9-0.6-5.5-1.5v-52.3c1.6-1,3.5-1.5,5.5-1.5
				h27.7V482.4h664v38.7h31.8c0.5,0,1,0.1,1.5,0.2L901.7,574.7L901.7,574.7z"/>
			<polygon points="456.7,330.9 380.4,240.2 270.5,278.5 344.1,370 			"/>
			<polygon points="712.5,240.2 637,149.3 462.3,210.1 547.7,297.5 			"/>
			<polygon points="915,170.3 878.6,65.8 723.6,119.7 796.8,211.4 			"/>
		</g>
	</g>
	<g id="Capa_2_00000031174731197351425750000002671056132954977681_">
		<g class="st1">
			<g>
				<line class="st3" x1="1110" y1="-43.8" x2="1110" y2="1122.9"/>
			</g>
			<g>
				<line class="st3" x1="1073" y1="-43.8" x2="1073" y2="1122.9"/>
			</g>
			<g>
				<line class="st3" x1="1036" y1="-43.8" x2="1036" y2="1122.9"/>
			</g>
			<g>
				<line class="st3" x1="999" y1="-43.8" x2="999" y2="1122.9"/>
			</g>
			<g>
				<line class="st3" x1="962" y1="-43.8" x2="962" y2="1122.9"/>
			</g>
			<g>
				<line class="st3" x1="925" y1="-43.8" x2="925" y2="1122.9"/>
			</g>
			<g>
				<line class="st3" x1="888" y1="-43.8" x2="888" y2="1122.9"/>
			</g>
			<g>
				<line class="st3" x1="851" y1="-43.8" x2="851" y2="1122.9"/>
			</g>
			<g>
				<line class="st3" x1="814" y1="-43.8" x2="814" y2="1122.9"/>
			</g>
			<g>
				<line class="st3" x1="777" y1="-43.8" x2="777" y2="1122.9"/>
			</g>
			<g>
				<line class="st3" x1="740" y1="-43.8" x2="740" y2="1122.9"/>
			</g>
			<g>
				<line class="st3" x1="703" y1="-43.8" x2="703" y2="1122.9"/>
			</g>
			<g>
				<line class="st3" x1="666" y1="-43.8" x2="666" y2="1122.9"/>
			</g>
			<g>
				<line class="st3" x1="629" y1="-43.8" x2="629" y2="1122.9"/>
			</g>
			<g>
				<line class="st3" x1="592" y1="-43.8" x2="592" y2="1122.9"/>
			</g>
			<g>
				<line class="st3" x1="555" y1="-43.8" x2="555" y2="1122.9"/>
			</g>
			<g>
				<line class="st3" x1="518" y1="-43.8" x2="518" y2="1122.9"/>
			</g>
			<g>
				<line class="st3" x1="481" y1="-43.8" x2="481" y2="1122.9"/>
			</g>
			<g>
				<line class="st3" x1="444" y1="-43.8" x2="444" y2="1122.9"/>
			</g>
			<g>
				<line class="st3" x1="407" y1="-43.8" x2="407" y2="1122.9"/>
			</g>
			<g>
				<line class="st3" x1="370" y1="-43.8" x2="370" y2="1122.9"/>
			</g>
			<g>
				<line class="st3" x1="333" y1="-43.8" x2="333" y2="1122.9"/>
			</g>
			<g>
				<line class="st3" x1="296" y1="-43.8" x2="296" y2="1122.9"/>
			</g>
			<g>
				<line class="st3" x1="259" y1="-43.8" x2="259" y2="1122.9"/>
			</g>
			<g>
				<line class="st3" x1="222" y1="-43.8" x2="222" y2="1122.9"/>
			</g>
			<g>
				<line class="st3" x1="185" y1="-43.8" x2="185" y2="1122.9"/>
			</g>
			<g>
				<line class="st3" x1="148" y1="-43.8" x2="148" y2="1122.9"/>
			</g>
			<g>
				<line class="st3" x1="111" y1="-43.8" x2="111" y2="1122.9"/>
			</g>
			<g>
				<line class="st3" x1="74" y1="-43.8" x2="74" y2="1122.9"/>
			</g>
			<g>
				<line class="st3" x1="37" y1="-43.8" x2="37" y2="1122.9"/>
			</g>
			<g>
				<line class="st3" x1="0" y1="-43.8" x2="0" y2="1122.9"/>
			</g>
		</g>
		<g class="st1">
			<g>
				<line class="st3" x1="-58.4" y1="1110" x2="1137.6" y2="1110"/>
			</g>
			<g>
				<line class="st3" x1="-58.4" y1="1073" x2="1137.6" y2="1073"/>
			</g>
			<g>
				<line class="st3" x1="-58.4" y1="1036" x2="1137.6" y2="1036"/>
			</g>
			<g>
				<line class="st3" x1="-58.4" y1="999" x2="1137.6" y2="999"/>
			</g>
			<g>
				<line class="st3" x1="-58.4" y1="962" x2="1137.6" y2="962"/>
			</g>
			<g>
				<line class="st3" x1="-58.4" y1="925" x2="1137.6" y2="925"/>
			</g>
			<g>
				<line class="st3" x1="-58.4" y1="888" x2="1137.6" y2="888"/>
			</g>
			<g>
				<line class="st3" x1="-58.4" y1="851" x2="1137.6" y2="851"/>
			</g>
			<g>
				<line class="st3" x1="-58.4" y1="814" x2="1137.6" y2="814"/>
			</g>
			<g>
				<line class="st3" x1="-58.4" y1="777" x2="1137.6" y2="777"/>
			</g>
			<g>
				<line class="st3" x1="-58.4" y1="740" x2="1137.6" y2="740"/>
			</g>
			<g>
				<line class="st3" x1="-58.4" y1="703" x2="1137.6" y2="703"/>
			</g>
			<g>
				<line class="st3" x1="-58.4" y1="666" x2="1137.6" y2="666"/>
			</g>
			<g>
				<line class="st3" x1="-58.4" y1="629" x2="1137.6" y2="629"/>
			</g>
			<g>
				<line class="st3" x1="-58.4" y1="592" x2="1137.6" y2="592"/>
			</g>
			<g>
				<line class="st3" x1="-58.4" y1="555" x2="1137.6" y2="555"/>
			</g>
			<g>
				<line class="st3" x1="-58.4" y1="518" x2="1137.6" y2="518"/>
			</g>
			<g>
				<line class="st3" x1="-58.4" y1="481" x2="1137.6" y2="481"/>
			</g>
			<g>
				<line class="st3" x1="-58.4" y1="444" x2="1137.6" y2="444"/>
			</g>
			<g>
				<line class="st3" x1="-58.4" y1="407" x2="1137.6" y2="407"/>
			</g>
			<g>
				<line class="st3" x1="-58.4" y1="370" x2="1137.6" y2="370"/>
			</g>
			<g>
				<line class="st3" x1="-58.4" y1="333" x2="1137.6" y2="333"/>
			</g>
			<g>
				<line class="st3" x1="-58.4" y1="296" x2="1137.6" y2="296"/>
			</g>
			<g>
				<line class="st3" x1="-58.4" y1="259" x2="1137.6" y2="259"/>
			</g>
			<g>
				<line class="st3" x1="-58.4" y1="222" x2="1137.6" y2="222"/>
			</g>
			<g>
				<line class="st3" x1="-58.4" y1="185" x2="1137.6" y2="185"/>
			</g>
			<g>
				<line class="st3" x1="-58.4" y1="148" x2="1137.6" y2="148"/>
			</g>
			<g>
				<line class="st3" x1="-58.4" y1="111" x2="1137.6" y2="111"/>
			</g>
			<g>
				<line class="st3" x1="-58.4" y1="74" x2="1137.6" y2="74"/>
			</g>
			<g>
				<line class="st3" x1="-58.4" y1="37" x2="1137.6" y2="37"/>
			</g>
			<g>
				<line class="st3" x1="-58.4" y1="0" x2="1137.6" y2="0"/>
			</g>
		</g>
	</g>
</g>
<g id="Capa_2">
	<g>
		<path class="st2" d="M654,730.4L460.2,619.8c-13.8-7.8-30.4,2.9-30.4,19.7v24h-49.3c-6.8,0-12.3,5.9-12.3,13.3V690
			c0,7.3,5.5,13.3,12.3,13.3h49.3h24.6c6.8,0,12.3,5.9,12.3,13.3v13.3c0,7.3,5.5,13.3,12.3,13.3h18.5c6.8,0,12.3,5.9,12.3,13.3v13.3
			c0,7.3-5.5,13.3-12.3,13.3h-67.8h-24.6c-6.8,0-12.3,5.9-12.3,13.3v13.3c0,7.3,5.5,13.3,12.3,13.3h24.6v37.8
			c0,16.8,16.6,27.6,30.4,19.7L654,769.7C668.7,761.4,668.7,738.7,654,730.4z"/>
		<path class="st2" d="M1002.7,563.9h-24.6V451.1H239.8l-124.1-96v96v385.1H91c-6.8,0-12.3,5.9-12.3,13.3v39.8
			c0,7.3,5.5,13.3,12.3,13.3h24.6v13.3c0,73.2,55.3,132.8,123.2,132.8h616c67.9,0,123.2-59.6,123.2-132.8v-25.1h-18.5
			c-6.8,0-12.3-5.9-12.3-13.3v-39.8c0-7.3,5.5-13.3,12.3-13.3h18.5v-194h24.6c6.8,0,12.3-5.9,12.3-13.3v-39.8
			C1015.1,569.8,1009.6,563.9,1002.7,563.9z M953.5,628.2c-2.6,1.3-5.5,2.1-8.6,2.1h-28.3v192.5h-49.3c-6.8,0-12.3,5.9-12.3,13.3
			v39.8c0,7.3,5.5,13.3,12.3,13.3h49.3v26.6c0,36.6-27.6,66.4-61.6,66.4h-616c-34,0-61.6-29.8-61.6-66.4v-13.3h-30.8
			c-2.3,0-4.3-0.7-6.2-1.8v-62.7c1.8-1.1,3.9-1.8,6.2-1.8h30.8V517.4h739.3v46.5h35.4c0.5,0,1.1,0.1,1.6,0.2V628.2z"/>
		<polygon class="st2" points="458,335.7 373.1,226.9 250.7,272.8 332.7,382.6 		"/>
		<polygon class="st2" points="742.8,226.9 658.8,117.8 464.3,190.7 559.3,295.7 		"/>
		<polygon class="st2" points="968.3,143 927.8,17.6 755.2,82.3 836.7,192.3 		"/>
	</g>
</g>
</svg>
