<?xml version="1.0" encoding="utf-8"?>
<!-- Generator: Adobe Illustrator 28.0.0, SVG Export Plug-In . SVG Version: 6.00 Build 0)  -->
<svg version="1.1" xmlns="http://www.w3.org/2000/svg" xmlns:xlink="http://www.w3.org/1999/xlink" x="0px" y="0px"
	 viewBox="0 0 1080 1080" style="enable-background:new 0 0 1080 1080;" xml:space="preserve">
<style type="text/css">
	.st0{display:none;}
	.st1{display:inline;}
	.st2{fill:#FFD700;}
	.st3{fill:#FFFFFF;}
</style>
<g id="Capa_1" class="st0">
	<g class="st1">
		<path class="st2" d="M633.42,657.57l-174.24-92.22c-12.39-6.56-27.3,2.42-27.3,16.44v20.01h-44.31c-6.12,0-11.08,4.96-11.08,11.08
			v11.08c0,6.12,4.96,11.08,11.08,11.08h44.31h22.15c6.12,0,11.08,4.96,11.08,11.08v11.08c0,6.12,4.96,11.08,11.08,11.08h16.61
			c6.12,0,11.08,4.96,11.08,11.08v11.08c0,6.12-4.96,11.08-11.08,11.08h-60.92h-22.15c-6.12,0-11.08,4.96-11.08,11.08v11.08
			c0,6.12,4.96,11.08,11.08,11.08h22.15v31.51c0,14.01,14.91,22.99,27.3,16.44l174.24-92.22
			C646.62,683.46,646.62,664.56,633.42,657.57z"/>
		<path class="st2" d="M946.92,518.73h-22.15v-94.15H261.01l-111.58-80.1v80.1v321.21h-22.15c-6.12,0-11.08,4.96-11.08,11.08v33.23
			c0,6.12,4.96,11.08,11.08,11.08h22.15v11.08c0,61.07,49.69,110.76,110.76,110.76h553.82c61.08,0,110.76-49.69,110.76-110.76V791.3
			h-16.61c-6.12,0-11.08-4.96-11.08-11.08v-33.23c0-6.12,4.96-11.08,11.08-11.08h16.61V574.11h22.15c6.12,0,11.08-4.96,11.08-11.08
			v-33.23C958,523.69,953.04,518.73,946.92,518.73z M902.62,572.4c-2.37,1.08-4.99,1.71-7.76,1.71h-25.47v160.61h-44.31
			c-6.12,0-11.08,4.96-11.08,11.08v33.23c0,6.12,4.96,11.08,11.08,11.08h44.31v22.15c0,30.54-24.85,55.38-55.38,55.38H260.19
			c-30.54,0-55.38-24.84-55.38-55.38v-11.08h-27.69c-2.03,0-3.9-0.58-5.54-1.54v-52.31c1.63-0.95,3.51-1.54,5.54-1.54h27.69V479.96
			h664.58v38.77h31.78c0.5,0,0.97,0.09,1.45,0.15V572.4z"/>
		<polygon class="st2" points="457.24,328.31 380.85,237.61 270.84,275.86 344.56,367.49 		"/>
		<polygon class="st2" points="713.26,237.61 637.73,146.6 462.84,207.41 548.27,294.98 		"/>
		<polygon class="st2" points="915.92,167.62 879.54,63 724.36,116.96 797.67,208.74 		"/>
	</g>
</g>
<g id="Capa_3">
	<g>
		<path class="st3" d="M632.72,659.8l-174.08-92.13c-12.37-6.55-27.27,2.42-27.27,16.42v19.99H387.1c-6.11,0-11.07,4.95-11.07,11.07
			v11.07c0,6.11,4.95,11.07,11.07,11.07h44.26h22.13c6.11,0,11.07,4.95,11.07,11.07v11.07c0,6.11,4.95,11.07,11.07,11.07h16.6
			c6.11,0,11.07,4.95,11.07,11.07v11.07c0,6.11-4.95,11.07-11.07,11.07h-60.86h-22.13c-6.11,0-11.07,4.95-11.07,11.07v11.07
			c0,6.11,4.95,11.07,11.07,11.07h22.13v31.48c0,14,14.9,22.97,27.27,16.42l174.08-92.13C645.91,685.67,645.91,666.78,632.72,659.8z
			"/>
		<path class="st3" d="M945.93,521.09H923.8v-94.06H260.66l-111.48-80.03v80.03v320.91h-22.13c-6.11,0-11.07,4.95-11.07,11.07v33.2
			c0,6.11,4.95,11.07,11.07,11.07h22.13v11.07c0,61.02,49.64,110.66,110.66,110.66h553.3c61.02,0,110.66-49.64,110.66-110.66v-20.93
			h-16.6c-6.11,0-11.07-4.95-11.07-11.07v-33.2c0-6.11,4.95-11.07,11.07-11.07h16.6V576.42h22.13c6.11,0,11.07-4.95,11.07-11.07
			v-33.2C957,526.05,952.05,521.09,945.93,521.09z M901.67,574.71c-2.37,1.08-4.98,1.71-7.75,1.71h-25.44v160.46h-44.26
			c-6.11,0-11.07,4.95-11.07,11.07v33.2c0,6.11,4.95,11.07,11.07,11.07h44.26v22.13c0,30.51-24.82,55.33-55.33,55.33h-553.3
			c-30.51,0-55.33-24.82-55.33-55.33v-11.07h-27.66c-2.03,0-3.9-0.58-5.53-1.53v-52.26c1.63-0.95,3.51-1.53,5.53-1.53h27.66V482.36
			h663.96v38.73h31.75c0.5,0,0.97,0.09,1.45,0.15V574.71z"/>
		<polygon class="st3" points="456.71,330.86 380.39,240.23 270.49,278.45 344.13,370 		"/>
		<polygon class="st3" points="712.49,240.23 637.03,149.31 462.31,210.07 547.65,297.55 		"/>
		<polygon class="st3" points="914.96,170.31 878.61,65.79 723.58,119.7 796.82,211.39 		"/>
	</g>
</g>
<g id="Capa_2" class="st0">
	<g class="st1">
		<g>
			<line x1="1110" y1="-43.76" x2="1110" y2="1122.91"/>
		</g>
		<g>
			<line x1="1073" y1="-43.76" x2="1073" y2="1122.91"/>
		</g>
		<g>
			<line x1="1036" y1="-43.76" x2="1036" y2="1122.91"/>
		</g>
		<g>
			<line x1="999" y1="-43.76" x2="999" y2="1122.91"/>
		</g>
		<g>
			<line x1="962" y1="-43.76" x2="962" y2="1122.91"/>
		</g>
		<g>
			<line x1="925" y1="-43.76" x2="925" y2="1122.91"/>
		</g>
		<g>
			<line x1="888" y1="-43.76" x2="888" y2="1122.91"/>
		</g>
		<g>
			<line x1="851" y1="-43.76" x2="851" y2="1122.91"/>
		</g>
		<g>
			<line x1="814" y1="-43.76" x2="814" y2="1122.91"/>
		</g>
		<g>
			<line x1="777" y1="-43.76" x2="777" y2="1122.91"/>
		</g>
		<g>
			<line x1="740" y1="-43.76" x2="740" y2="1122.91"/>
		</g>
		<g>
			<line x1="703" y1="-43.76" x2="703" y2="1122.91"/>
		</g>
		<g>
			<line x1="666" y1="-43.76" x2="666" y2="1122.91"/>
		</g>
		<g>
			<line x1="629" y1="-43.76" x2="629" y2="1122.91"/>
		</g>
		<g>
			<line x1="592" y1="-43.76" x2="592" y2="1122.91"/>
		</g>
		<g>
			<line x1="555" y1="-43.76" x2="555" y2="1122.91"/>
		</g>
		<g>
			<line x1="518" y1="-43.76" x2="518" y2="1122.91"/>
		</g>
		<g>
			<line x1="481" y1="-43.76" x2="481" y2="1122.91"/>
		</g>
		<g>
			<line x1="444" y1="-43.76" x2="444" y2="1122.91"/>
		</g>
		<g>
			<line x1="407" y1="-43.76" x2="407" y2="1122.91"/>
		</g>
		<g>
			<line x1="370" y1="-43.76" x2="370" y2="1122.91"/>
		</g>
		<g>
			<line x1="333" y1="-43.76" x2="333" y2="1122.91"/>
		</g>
		<g>
			<line x1="296" y1="-43.76" x2="296" y2="1122.91"/>
		</g>
		<g>
			<line x1="259" y1="-43.76" x2="259" y2="1122.91"/>
		</g>
		<g>
			<line x1="222" y1="-43.76" x2="222" y2="1122.91"/>
		</g>
		<g>
			<line x1="185" y1="-43.76" x2="185" y2="1122.91"/>
		</g>
		<g>
			<line x1="148" y1="-43.76" x2="148" y2="1122.91"/>
		</g>
		<g>
			<line x1="111" y1="-43.76" x2="111" y2="1122.91"/>
		</g>
		<g>
			<line x1="74" y1="-43.76" x2="74" y2="1122.91"/>
		</g>
		<g>
			<line x1="37" y1="-43.76" x2="37" y2="1122.91"/>
		</g>
		<g>
			<line x1="0" y1="-43.76" x2="0" y2="1122.91"/>
		</g>
	</g>
	<g class="st1">
		<g>
			<line x1="-58.44" y1="1110" x2="1137.59" y2="1110"/>
		</g>
		<g>
			<line x1="-58.44" y1="1073" x2="1137.59" y2="1073"/>
		</g>
		<g>
			<line x1="-58.44" y1="1036" x2="1137.59" y2="1036"/>
		</g>
		<g>
			<line x1="-58.44" y1="999" x2="1137.59" y2="999"/>
		</g>
		<g>
			<line x1="-58.44" y1="962" x2="1137.59" y2="962"/>
		</g>
		<g>
			<line x1="-58.44" y1="925" x2="1137.59" y2="925"/>
		</g>
		<g>
			<line x1="-58.44" y1="888" x2="1137.59" y2="888"/>
		</g>
		<g>
			<line x1="-58.44" y1="851" x2="1137.59" y2="851"/>
		</g>
		<g>
			<line x1="-58.44" y1="814" x2="1137.59" y2="814"/>
		</g>
		<g>
			<line x1="-58.44" y1="777" x2="1137.59" y2="777"/>
		</g>
		<g>
			<line x1="-58.44" y1="740" x2="1137.59" y2="740"/>
		</g>
		<g>
			<line x1="-58.44" y1="703" x2="1137.59" y2="703"/>
		</g>
		<g>
			<line x1="-58.44" y1="666" x2="1137.59" y2="666"/>
		</g>
		<g>
			<line x1="-58.44" y1="629" x2="1137.59" y2="629"/>
		</g>
		<g>
			<line x1="-58.44" y1="592" x2="1137.59" y2="592"/>
		</g>
		<g>
			<line x1="-58.44" y1="555" x2="1137.59" y2="555"/>
		</g>
		<g>
			<line x1="-58.44" y1="518" x2="1137.59" y2="518"/>
		</g>
		<g>
			<line x1="-58.44" y1="481" x2="1137.59" y2="481"/>
		</g>
		<g>
			<line x1="-58.44" y1="444" x2="1137.59" y2="444"/>
		</g>
		<g>
			<line x1="-58.44" y1="407" x2="1137.59" y2="407"/>
		</g>
		<g>
			<line x1="-58.44" y1="370" x2="1137.59" y2="370"/>
		</g>
		<g>
			<line x1="-58.44" y1="333" x2="1137.59" y2="333"/>
		</g>
		<g>
			<line x1="-58.44" y1="296" x2="1137.59" y2="296"/>
		</g>
		<g>
			<line x1="-58.44" y1="259" x2="1137.59" y2="259"/>
		</g>
		<g>
			<line x1="-58.44" y1="222" x2="1137.59" y2="222"/>
		</g>
		<g>
			<line x1="-58.44" y1="185" x2="1137.59" y2="185"/>
		</g>
		<g>
			<line x1="-58.44" y1="148" x2="1137.59" y2="148"/>
		</g>
		<g>
			<line x1="-58.44" y1="111" x2="1137.59" y2="111"/>
		</g>
		<g>
			<line x1="-58.44" y1="74" x2="1137.59" y2="74"/>
		</g>
		<g>
			<line x1="-58.44" y1="37" x2="1137.59" y2="37"/>
		</g>
		<g>
			<line x1="-58.44" y1="0" x2="1137.59" y2="0"/>
		</g>
	</g>
</g>
</svg>
