<?xml version="1.0" encoding="utf-8"?>
<!-- Generator: Adobe Illustrator 28.0.0, SVG Export Plug-In . SVG Version: 6.00 Build 0)  -->
<svg version="1.1" id="Capa_1" xmlns="http://www.w3.org/2000/svg" xmlns:xlink="http://www.w3.org/1999/xlink" x="0px" y="0px"
	 viewBox="0 0 1080 1080" style="enable-background:new 0 0 1080 1080;" xml:space="preserve">
<style type="text/css">
	.st0{fill:#FFD700;stroke:#FFFFFF;stroke-miterlimit:10;}
</style>
<g id="Capa_2_00000030484512910671971120000001302574781785114278_">
	<g>
		<path class="st0" d="M647.2,737.3L453.4,626.7c-13.8-7.8-30.4,2.9-30.4,19.7v24h-49.3c-6.8,0-12.3,5.9-12.3,13.3v13.2
			c0,7.3,5.5,13.3,12.3,13.3H423h24.6c6.8,0,12.3,5.9,12.3,13.3v13.3c0,7.3,5.5,13.3,12.3,13.3h18.5c6.8,0,12.3,5.9,12.3,13.3v13.3
			c0,7.3-5.5,13.3-12.3,13.3h-67.8h-24.6c-6.8,0-12.3,5.9-12.3,13.3v13.3c0,7.3,5.5,13.3,12.3,13.3h24.6v37.8
			c0,16.8,16.6,27.6,30.4,19.7l193.9-110.8C661.9,768.3,661.9,745.6,647.2,737.3z"/>
		<path class="st0" d="M995.9,570.8h-24.6V458H233l-124.1-96v96v385.1H84.2c-6.8,0-12.3,5.9-12.3,13.3v39.8
			c0,7.3,5.5,13.3,12.3,13.3h24.6v13.3c0,73.2,55.3,132.8,123.2,132.8h616c67.9,0,123.2-59.6,123.2-132.8v-25.1h-18.5
			c-6.8,0-12.3-5.9-12.3-13.3v-39.8c0-7.3,5.5-13.3,12.3-13.3h18.5v-194h24.6c6.8,0,12.3-5.9,12.3-13.3v-39.8
			C1008.3,576.7,1002.8,570.8,995.9,570.8z M946.7,635.1c-2.6,1.3-5.5,2.1-8.6,2.1h-28.3v192.5h-49.3c-6.8,0-12.3,5.9-12.3,13.3
			v39.8c0,7.3,5.5,13.3,12.3,13.3h49.3v26.6c0,36.6-27.6,66.4-61.6,66.4h-616c-34,0-61.6-29.8-61.6-66.4v-13.3h-30.8
			c-2.3,0-4.3-0.7-6.2-1.8v-62.7c1.8-1.1,3.9-1.8,6.2-1.8h30.8V524.3h739.3v46.5h35.4c0.5,0,1.1,0.1,1.6,0.2v64.1H946.7z"/>
		<polygon class="st0" points="451.2,342.6 366.3,233.8 243.9,279.7 325.9,389.5 		"/>
		<polygon class="st0" points="736,233.8 652,124.7 457.5,197.6 552.5,302.6 		"/>
		<polygon class="st0" points="961.5,149.9 921,24.5 748.4,89.2 829.9,199.2 		"/>
	</g>
</g>
</svg>
